<svg xmlns:xlink="http://www.w3.org/1999/xlink" xmlns="http://www.w3.org/2000/svg" viewBox="0 0 32 32" aria-hidden="true" role="presentation" focusable="false" style="display: block; height: 24px; width: 24px; fill: currentcolor;" width="32"  height="32" ><path d="M5.12 9.36 7 11.25v.05c.12 4.47 2.85 8.2 8.3 11.2l.39.21.27.14.3-.19c.46-.28.89-.57 1.3-.85L19 23.24c-.5.35-1 .7-1.55 1.04l2.2 2.92a1.13 1.13 0 0 1-.9 1.8H17v3h-2v-3h-1.75a1.13 1.13 0 0 1-.9-1.8l2.14-2.86C8.2 20.92 5 16.46 5 11c0-.56.04-1.1.12-1.64zM3.71 2.3l26 26-1.42 1.42-26-26zM16 25.67 15 27h2zM16 0c5.9 0 11 5.28 11 11 0 2.92-1.17 5.68-3.47 8.29l-1.42-1.42c1.79-2.06 2.74-4.17 2.87-6.33l.02-.27V11c0-4.64-4.21-9-9-9a8.98 8.98 0 0 0-6.73 3.03L7.85 3.6A10.97 10.97 0 0 1 16 0z" fill="#222222"></path></svg>