<svg xmlns:xlink="http://www.w3.org/1999/xlink" xmlns="http://www.w3.org/2000/svg" viewBox="0 0 32 32" aria-hidden="true" role="presentation" focusable="false" style="display: block; height: 24px; width: 24px; fill: currentcolor;" width="32"  height="32" ><path d="M2.41 3.83 3.83 2.4l25.45 25.46-1.41 1.41zm.49 3.31 1.45 1.45c-.2.37-.32.8-.34 1.23L4 10v14a3 3 0 0 0 2.82 3h15.94l2 2H7a5 5 0 0 1-5-4.78V10c0-1.06.33-2.05.9-2.86zM17.59 2a2 2 0 0 1 1.28.47l.13.12L21.42 5H25a5 5 0 0 1 4.98 4.56l.02.22V24a5 5 0 0 1-.24 1.52L28 23.76V10a3 3 0 0 0-2.82-3h-4.59l-3-3h-3.17l-2.97 3h-.2l-2-2h1.36L13 2.6a2 2 0 0 1 1.07-.57l.17-.02.18-.01zM8.96 13.2l1.5 1.5a6 6 0 0 0 7.84 7.84l1.5 1.5A8 8 0 0 1 8.96 13.2zM16 9a8 8 0 0 1 7.64 10.4l-1.68-1.68a6 6 0 0 0-6.67-6.67L13.6 9.35A8 8 0 0 1 16 9z" fill="#222222"></path></svg>