<svg xmlns:xlink="http://www.w3.org/1999/xlink" xmlns="http://www.w3.org/2000/svg" viewBox="0 0 32 32" aria-hidden="true" role="presentation" focusable="false" style="display: block; height: 24px; width: 24px; fill: currentcolor;" width="32"  height="32" ><path d="m3.7 2.3 26 26-1.4 1.4-26-26zM14.77 19l2 2H3v4h17.76l2 2H3a2 2 0 0 1-2-1.85V21a2 2 0 0 1 1.85-2H3zM30 19v6.76l-2-2V19zm-4 0v2.76L23.24 19zM21 3a4 4 0 0 1 3.36 6.18l-.1.14.13.04a8 8 0 0 1 5.6 7.4L30 17h-2a6 6 0 0 0-5.78-6H21V9a2 2 0 0 0 .15-4H21zm1 10a4 4 0 0 1 4 3.8v.2h-2a2 2 0 0 0-1.85-2H19.24l-2-2zM17 3v2a4 4 0 0 0-4 3.76l-1.68-1.69A6 6 0 0 1 16.78 3z" fill="#222222"></path></svg>