<svg id="l_d_2449" xmlns="http://www.w3.org/2000/svg" xmlns:xlink="http://www.w3.org/1999/xlink" viewBox="0 0 45 45" width="45" height="45" preserveAspectRatio="xMidYMid meet" style="
                          width: 100%;
                          height: 100%;
                          transform: translate3d(0px, 0px, 0px);
                          content-visibility: visible;
                        ">
                        <defs id="l_d_2450">
                          <clipPath id="__lottie_element_1063">
                            <rect id="l_d_2453" width="45" height="45" x="0" y="0"></rect>
                          </clipPath>
                          <clipPath id="__lottie_element_1082">
                            <path id="l_d_2486" fill="#ffffff" clip-rule="nonzero" d=" M55.900001525878906,25.996999740600586 C55.900001525878906,25.996999740600586 30.731000900268555,25.996999740600586 30.731000900268555,25.996999740600586 C30.731000900268555,25.996999740600586 30.75,35.875 30.75,35.875 C30.75,35.875 55.91899871826172,35.875 55.91899871826172,35.875 C55.91899871826172,35.875 55.900001525878906,25.996999740600586 55.900001525878906,25.996999740600586" fill-opacity="1"></path>
                          </clipPath>
                        </defs>
                        <g id="l_d_2451" clip-path="url(#__lottie_element_1063)">
                          <g id="l_d_2499" transform="matrix(1,0,0,1,-24.75,-17.125)" opacity="1" style="display: block">
                            <g id="l_d_2503" opacity="1" transform="matrix(1,0,0,1,33.5,48.5)">
                              <path id="l_d_2504" stroke-linecap="butt" stroke-linejoin="round" fill-opacity="0" stroke="rgb(34,34,34)" stroke-opacity="1" stroke-width="2" d=" M2.5,-5.5 C2.5,-5.5 -2.5,5.5 -2.5,5.5"></path>
                            </g>
                            <g id="l_d_2505" opacity="1" transform="matrix(1,0,0,1,46.5,48.5)">
                              <path id="l_d_2506" stroke-linecap="butt" stroke-linejoin="round" fill-opacity="0" stroke="rgb(34,34,34)" stroke-opacity="1" stroke-width="2" d=" M-2.5,-5.5 C-2.5,-5.5 2.5,5.5 2.5,5.5"></path>
                            </g>
                            <g id="l_d_2507" opacity="1" transform="matrix(1,0,0,1,40,48.5)">
                              <path id="l_d_2508" stroke-linecap="butt" stroke-linejoin="round" fill-opacity="0" stroke="rgb(34,34,34)" stroke-opacity="1" stroke-width="2" d=" M0,5.5 C0,5.5 0,-5.5 0,-5.5"></path>
                            </g>
                            <g id="l_d_2509" opacity="1" transform="matrix(1,0,0,1,40,38.5)">
                              <path id="l_d_2510" stroke-linecap="butt" stroke-linejoin="round" fill-opacity="0" stroke="rgb(34,34,34)" stroke-opacity="1" stroke-width="2" d=" M-11,-5.5 C-11,0.574999988079071 -6.074999809265137,5.5 0,5.5 C0,5.5 0,5.5 0,5.5 C6.074999809265137,5.5 11,0.574999988079071 11,-5.5"></path>
                            </g>
                            <g id="l_d_2511" opacity="1" transform="matrix(1,0,0,1,40,49)">
                              <path id="l_d_2512" stroke-linecap="butt" stroke-linejoin="round" fill-opacity="0" stroke="rgb(34,34,34)" stroke-opacity="1" stroke-width="2" d=" M7,0 C7,0 -7,0 -7,0"></path>
                            </g>
                            <g id="l_d_2513" opacity="1" transform="matrix(1,0,0,1,28,36)">
                              <path id="l_d_2514" stroke-linecap="butt" stroke-linejoin="round" fill-opacity="0" stroke="rgb(34,34,34)" stroke-opacity="1" stroke-width="2" d=" M2,0 C2,0 -2,0 -2,0"></path>
                            </g>
                            <g id="l_d_2515" opacity="1" transform="matrix(1,0,0,1,52,36)">
                              <path id="l_d_2516" stroke-linecap="butt" stroke-linejoin="round" fill-opacity="0" stroke="rgb(34,34,34)" stroke-opacity="1" stroke-width="2" d=" M2,0 C2,0 -2,0 -2,0"></path>
                            </g>
                          </g>
                          <g id="l_d_2491" transform="matrix(1,0,0,1,-24.75,-17.125)" opacity="1" style="display: block">
                            <g id="l_d_2495" opacity="1" transform="matrix(1,0,0,1,31.75,32)">
                              <path id="l_d_2496" stroke-linecap="butt" stroke-linejoin="round" fill-opacity="0" stroke="rgb(34,34,34)" stroke-opacity="1" stroke-width="2" d=" M4.954999923706055,0 C1.4019999504089355,0 -3.75,0 -3.75,0"></path>
                            </g>
                            <g id="l_d_2497" opacity="1" transform="matrix(1,0,0,1,48.75,32)">
                              <path id="l_d_2498" stroke-linecap="butt" stroke-linejoin="round" fill-opacity="0" stroke="rgb(34,34,34)" stroke-opacity="1" stroke-width="2" d=" M3.25,0 C3.25,0 0.5569999814033508,0 -2.2230000495910645,0"></path>
                            </g>
                          </g>
                          <g id="l_d_2484" clip-path="url(#__lottie_element_1082)" transform="matrix(1,0,0,1,-24.75,-17.125)" opacity="1" style="display: block">
                            <g id="l_d_2489" opacity="1" transform="matrix(1,0,0,1,35.99700164794922,9.467000007629395)">
                              <path id="l_d_2490" stroke-linecap="butt" stroke-linejoin="round" fill-opacity="0" stroke="rgb(34,34,34)" stroke-opacity="1" stroke-width="2" d=" M11.996999740600586,-5.4670000076293945 C12.001999855041504,-0.6340000033378601 8.003000259399414,0.6159999966621399 8.003000259399414,5.5329999923706055 C8.003000259399414,10.449999809265137 12.001999855041504,11.699999809265137 11.996999740600586,16.533000946044922 C11.991999626159668,21.365999221801758 8.003000259399414,22.700000762939453 8.003000259399414,27.533000946044922 M6.997000217437744,-5.4670000076293945 C7.001999855041504,-0.6340000033378601 3.003000020980835,0.6159999966621399 3.003000020980835,5.5329999923706055 C3.003000020980835,10.449999809265137 7.001999855041504,11.699999809265137 6.997000217437744,16.533000946044922 C6.992000102996826,21.365999221801758 3.003000020980835,22.700000762939453 3.003000020980835,27.533000946044922 M1.996999979019165,-5.4670000076293945 C2.002000093460083,-0.6340000033378601 -1.996999979019165,0.6159999966621399 -1.996999979019165,5.5329999923706055 C-1.996999979019165,10.449999809265137 2.002000093460083,11.699999809265137 1.996999979019165,16.533000946044922 C1.9919999837875366,21.365999221801758 -1.996999979019165,22.700000762939453 -1.996999979019165,27.533000946044922 M11.996999740600586,-27.533000946044922 C12.001999855041504,-22.700000762939453 8.003000259399414,-21.450000762939453 8.003000259399414,-16.533000946044922 C8.003000259399414,-11.616000175476074 12.001999855041504,-10.366000175476074 11.996999740600586,-5.5329999923706055 C11.996999740600586,-5.5329999923706055 11.996999740600586,-5.4670000076293945 11.996999740600586,-5.4670000076293945 C12.001999855041504,-0.6340000033378601 8.003000259399414,0.6159999966621399 8.003000259399414,5.5329999923706055 C8.003000259399414,10.449999809265137 12.001999855041504,11.699999809265137 11.996999740600586,16.533000946044922 C11.991999626159668,21.365999221801758 8.003000259399414,22.700000762939453 8.003000259399414,27.533000946044922 M6.997000217437744,-27.533000946044922 C7.001999855041504,-22.700000762939453 3.003000020980835,-21.450000762939453 3.003000020980835,-16.533000946044922 C3.003000020980835,-11.616000175476074 7.001999855041504,-10.366000175476074 6.997000217437744,-5.5329999923706055 C6.997000217437744,-5.5329999923706055 6.997000217437744,-5.4670000076293945 6.997000217437744,-5.4670000076293945 C7.001999855041504,-0.6340000033378601 3.003000020980835,0.6159999966621399 3.003000020980835,5.5329999923706055 C3.003000020980835,10.449999809265137 7.001999855041504,11.699999809265137 6.997000217437744,16.533000946044922 C6.992000102996826,21.365999221801758 3.003000020980835,22.700000762939453 3.003000020980835,27.533000946044922 M1.996999979019165,-27.533000946044922 C2.002000093460083,-22.700000762939453 -1.996999979019165,-21.450000762939453 -1.996999979019165,-16.533000946044922 C-1.996999979019165,-11.616000175476074 2.002000093460083,-10.366000175476074 1.996999979019165,-5.5329999923706055 C1.996999979019165,-5.5329999923706055 1.996999979019165,-5.4670000076293945 1.996999979019165,-5.4670000076293945 C2.002000093460083,-0.6340000033378601 -1.996999979019165,0.6159999966621399 -1.996999979019165,5.5329999923706055 C-1.996999979019165,10.449999809265137 2.002000093460083,11.699999809265137 1.996999979019165,16.533000946044922 C1.9919999837875366,21.365999221801758 -1.996999979019165,22.700000762939453 -1.996999979019165,27.533000946044922"></path>
                            </g>
                          </g>
                          <g id="l_d_2478" style="display: none">
                            <g id="l_d_2482"><path id="l_d_2483"></path></g>
                          </g>
                          <g id="l_d_2472" style="display: none">
                            <g id="l_d_2476"><path id="l_d_2477"></path></g>
                          </g>
                          <g id="l_d_2466" style="display: none">
                            <g id="l_d_2470"><path id="l_d_2471"></path></g>
                          </g>
                          <g id="l_d_2460" style="display: none">
                            <g id="l_d_2464"><path id="l_d_2465"></path></g>
                          </g>
                          <g id="l_d_2454" style="display: none">
                            <g id="l_d_2458"><path id="l_d_2459"></path></g>
                          </g>
                        </g>
                      </svg>