<svg id="l_d_2244" xmlns="http://www.w3.org/2000/svg" xmlns:xlink="http://www.w3.org/1999/xlink" viewBox="0 0 45 45" width="45" height="45" preserveAspectRatio="xMidYMid meet" style="
                          width: 100%;
                          height: 100%;
                          transform: translate3d(0px, 0px, 0px);
                          content-visibility: visible;
                        ">
                        <defs id="l_d_2245">
                          <clipPath id="__lottie_element_989">
                            <rect id="l_d_2248" width="45" height="45" x="0" y="0"></rect>
                          </clipPath>
                        </defs>
                        <g id="l_d_2246" clip-path="url(#__lottie_element_989)">
                          <g id="l_d_2249" transform="matrix(1,0,0,1,-23,-18.625)" opacity="1" style="display: block">
                            <g id="l_d_2253" opacity="1" transform="matrix(1,0,0,1,0,0)">
                              <g id="l_d_2254" opacity="1" transform="matrix(1,0,0,1,40,41)">
                                <path id="l_d_2255" stroke-linecap="butt" stroke-linejoin="round" fill-opacity="0" stroke="rgb(34,34,34)" stroke-opacity="1" stroke-width="2" d=" M-15,0 C-15,0 15,0 15,0"></path>
                              </g>
                              <g id="l_d_2256" opacity="1" transform="matrix(1,0,0,1,28,48)">
                                <path id="l_d_2257" stroke-linecap="butt" stroke-linejoin="round" fill-opacity="0" stroke="rgb(34,34,34)" stroke-opacity="1" stroke-width="2" d=" M0,7 C0,7 0,-7 0,-7"></path>
                              </g>
                              <g id="l_d_2258" opacity="1" transform="matrix(1,0,0,1,52,48)">
                                <path id="l_d_2259" stroke-linecap="butt" stroke-linejoin="round" fill-opacity="0" stroke="rgb(34,34,34)" stroke-opacity="1" stroke-width="2" d=" M0,7 C0,7 0,-7 0,-7"></path>
                              </g>
                            </g>
                            <g id="l_d_2260" opacity="1" transform="matrix(1,0,0,1,40,46.5)">
                              <path id="l_d_2261" stroke-linecap="butt" stroke-linejoin="round" fill-opacity="0" stroke="rgb(34,34,34)" stroke-opacity="1" stroke-width="2" d=" M-12,-5.5 C-12,-5.5 12,-5.5 12,-5.5 C12,-5.5 12,2.5 12,2.5 C12,4.1570000648498535 10.656999588012695,5.5 9,5.5 C9,5.5 -9,5.5 -9,5.5 C-10.656999588012695,5.5 -12,4.1570000648498535 -12,2.5 C-12,2.5 -12,-5.5 -12,-5.5z"></path>
                            </g>
                            <g id="l_d_2262" opacity="1" transform="matrix(1,0,0,1,48,37)">
                              <path id="l_d_2263" stroke-linecap="butt" stroke-linejoin="round" fill-opacity="0" stroke="rgb(34,34,34)" stroke-opacity="1" stroke-width="2" d=" M0,3 C0,3 0,-3 0,-3"></path>
                            </g>
                            <g id="l_d_2264" opacity="1" transform="matrix(1,0,0,1,48,31.5)">
                              <path id="l_d_2265" stroke-linecap="butt" stroke-linejoin="round" fill-opacity="0" stroke="rgb(34,34,34)" stroke-opacity="1" stroke-width="2" d=" M-2,-3.5 C-2,-3.5 2,-3.5 2,-3.5 C2,-3.5 4,3.5 4,3.5 C4,3.5 -4,3.5 -4,3.5 C-4,3.5 -2,-3.5 -2,-3.5z"></path>
                            </g>
                            <g id="l_d_2266" opacity="1" transform="matrix(1,0,0,1,33.5,38.5)">
                              <path id="l_d_2267" stroke-linecap="butt" stroke-linejoin="round" fill-opacity="0" stroke="rgb(34,34,34)" stroke-opacity="1" stroke-width="2" d=" M-2.5,-2.5 C-2.5,-2.5 2.5,-2.5 2.5,-2.5 C2.5,-2.5 2.5,2.5 2.5,2.5 C2.5,2.5 -2.5,2.5 -2.5,2.5 C-2.5,2.5 -2.5,-2.5 -2.5,-2.5z"></path>
                            </g>
                            <g id="l_d_2268" opacity="1" transform="matrix(1,0,0,1,31.895999908447266,34.013999938964844)">
                              <path id="l_d_2269" stroke-linecap="butt" stroke-linejoin="round" fill-opacity="0" stroke="rgb(34,34,34)" stroke-opacity="1" stroke-width="2" d=" M0.8960000276565552,2.0139999389648438 C0.8960000276565552,2.0139999389648438 -0.8960000276565552,-2.0139999389648438 -0.8960000276565552,-2.0139999389648438"></path>
                            </g>
                          </g>
                        </g>
                      </svg>