<svg id="l_d_2629" xmlns="http://www.w3.org/2000/svg" xmlns:xlink="http://www.w3.org/1999/xlink" viewBox="0 0 45 45" width="45" height="45" preserveAspectRatio="xMidYMid meet" style="
                          width: 100%;
                          height: 100%;
                          transform: translate3d(0px, 0px, 0px);
                          content-visibility: visible;
                        ">
                        <defs id="l_d_2630">
                          <clipPath id="__lottie_element_1136">
                            <rect id="l_d_2633" width="45" height="45" x="0" y="0"></rect>
                          </clipPath>
                          <g id="__lottie_element_1156">
                            <g id="l_d_2670" transform="matrix(1,0,0,1,-23,-19.25)" opacity="1" style="display: block">
                              <g id="l_d_2675" opacity="1" transform="matrix(1,0,0,1,40,44)">
                                <path id="l_d_2676" fill="rgb(34,34,34)" fill-opacity="1" d=" M11.930999755859375,0 C11.930999755859375,0 -11.930999755859375,0 -11.930999755859375,0 C-11.930999755859375,0 -14.982999801635742,-21.448999404907227 -14.982999801635742,-21.448999404907227 C-14.982999801635742,-21.448999404907227 15.00100040435791,-21.322999954223633 15.00100040435791,-21.322999954223633 C15.00100040435791,-21.322999954223633 11.930999755859375,0 11.930999755859375,0z"></path>
                              </g>
                            </g>
                          </g>
                          <mask id="__lottie_element_1156_1" mask-type="alpha">
                            <use id="l_d_2685" xlink:href="#__lottie_element_1156"></use>
                          </mask>
                          <g id="__lottie_element_1162">
                            <g id="l_d_2686" transform="matrix(1,0,0,1,-23,-19.25)" opacity="1" style="display: block">
                              <g id="l_d_2691" opacity="1" transform="matrix(1,0,0,1,40,44)">
                                <path id="l_d_2692" fill="rgb(34,34,34)" fill-opacity="1" d=" M11.930999755859375,0 C11.930999755859375,0 -11.930999755859375,0 -11.930999755859375,0 C-11.930999755859375,0 -14.982999801635742,-21.448999404907227 -14.982999801635742,-21.448999404907227 C-14.982999801635742,-21.448999404907227 15.00100040435791,-21.322999954223633 15.00100040435791,-21.322999954223633 C15.00100040435791,-21.322999954223633 11.930999755859375,0 11.930999755859375,0z"></path>
                              </g>
                            </g>
                          </g>
                          <mask id="__lottie_element_1162_1" mask-type="alpha">
                            <use id="l_d_2701" xlink:href="#__lottie_element_1162"></use>
                          </mask>
                          <g id="__lottie_element_1168">
                            <g id="l_d_2702" transform="matrix(1,0,0,1,-23,-19.25)" opacity="1" style="display: block">
                              <g id="l_d_2707" opacity="1" transform="matrix(1,0,0,1,40,44)">
                                <path id="l_d_2708" fill="rgb(34,34,34)" fill-opacity="1" d=" M-14.991999626159668,10.925999641418457 C-14.991999626159668,10.925999641418457 -11.930999755859375,0 -11.930999755859375,0 C-11.930999755859375,0 11.930999755859375,0 11.930999755859375,0 C11.930999755859375,0 14.991999626159668,11.052000045776367 14.991999626159668,11.052000045776367"></path>
                              </g>
                            </g>
                          </g>
                          <filter id="__lottie_element_1174" filterUnits="objectBoundingBox" x="0%" y="0%" width="100%" height="100%">
                            <feComponentTransfer id="l_d_2719" in="SourceGraphic">
                              <feFuncA id="l_d_2720" type="table" tableValues="1.0 0.0"></feFuncA>
                            </feComponentTransfer>
                          </filter>
                          <mask id="__lottie_element_1168_2" mask-type="alpha">
                            <g id="l_d_2717" filter="url(#__lottie_element_1174)">
                              <rect id="l_d_2721" width="45" height="45" x="0" y="0" fill="#ffffff" opacity="0"></rect>
                              <use id="l_d_2722" xlink:href="#__lottie_element_1168"></use>
                            </g>
                          </mask>
                          <g id="__lottie_element_1175">
                            <g id="l_d_2723" transform="matrix(1,0,0,1,-23,-19.25)" opacity="1" style="display: block">
                              <g id="l_d_2728" opacity="1" transform="matrix(1,0,0,1,40,44)">
                                <path id="l_d_2729" fill="rgb(34,34,34)" fill-opacity="1" d=" M-14.991999626159668,10.925999641418457 C-14.991999626159668,10.925999641418457 -11.930999755859375,0 -11.930999755859375,0 C-11.930999755859375,0 11.930999755859375,0 11.930999755859375,0 C11.930999755859375,0 14.991999626159668,11.052000045776367 14.991999626159668,11.052000045776367"></path>
                              </g>
                            </g>
                          </g>
                          <filter id="__lottie_element_1181" filterUnits="objectBoundingBox" x="0%" y="0%" width="100%" height="100%">
                            <feComponentTransfer id="l_d_2740" in="SourceGraphic">
                              <feFuncA id="l_d_2741" type="table" tableValues="1.0 0.0"></feFuncA>
                            </feComponentTransfer>
                          </filter>
                          <mask id="__lottie_element_1175_2" mask-type="alpha">
                            <g id="l_d_2738" filter="url(#__lottie_element_1181)">
                              <rect id="l_d_2742" width="45" height="45" x="0" y="0" fill="#ffffff" opacity="0"></rect>
                              <use id="l_d_2743" xlink:href="#__lottie_element_1175"></use>
                            </g>
                          </mask>
                        </defs>
                        <g id="l_d_2631" clip-path="url(#__lottie_element_1136)">
                          <g id="l_d_2744" transform="matrix(1,0,0,1,-23,-19.25)" opacity="1" style="display: block">
                            <g id="l_d_2748" opacity="1" transform="matrix(1,0,0,1,40,49)">
                              <path id="l_d_2749" stroke-linecap="butt" stroke-linejoin="round" fill-opacity="0" stroke="rgb(34,34,34)" stroke-opacity="1" stroke-width="2" d=" M-12,-5 C-12,-5 12,-5 12,-5 C12,-5 12,5 12,5 C12,5 -12,5 -12,5 C-12,5 -12,-5 -12,-5z"></path>
                            </g>
                            <g id="l_d_2750" opacity="1" transform="matrix(1,0,0,1,40,44)">
                              <path id="l_d_2751" stroke-linecap="butt" stroke-linejoin="round" fill-opacity="0" stroke="rgb(34,34,34)" stroke-opacity="1" stroke-width="2" d=" M-15,0 C-15,0 15,0 15,0"></path>
                            </g>
                          </g>
                          <g id="l_d_2731" mask="url(#__lottie_element_1175_2)" style="display: block">
                            <g id="l_d_2730" transform="matrix(1,0,0,1,-23,-19.25)" opacity="1">
                              <g id="l_d_2734" opacity="1" transform="matrix(1,0,0,1,0,0)">
                                <g id="l_d_2735" opacity="1" transform="matrix(1,0,0,1,40,41.479000091552734)">
                                  <path id="l_d_2736" stroke-linecap="butt" stroke-linejoin="miter" fill-opacity="0" stroke-miterlimit="4" stroke="rgb(34,34,34)" stroke-opacity="1" stroke-width="2" d=" M0,3.244999885559082 C1.2369999885559082,3.244999885559082 2.25,2.1760001182556152 2.25,1.0809999704360962 C2.25,-0.10899999737739563 1.5,-1.5509999990463257 0,-3.244999885559082 C-1.5,-1.5509999990463257 -2.25,-0.10899999737739563 -2.25,1.0809999704360962 C-2.25,2.1760001182556152 -1.2369999885559082,3.244999885559082 0,3.244999885559082 C0,3.244999885559082 0,3.244999885559082 0,3.244999885559082z"></path>
                                </g>
                              </g>
                            </g>
                          </g>
                          <g id="l_d_2710" mask="url(#__lottie_element_1168_2)" style="display: block">
                            <g id="l_d_2709" transform="matrix(1,0,0,1,-23,-19.25)" opacity="1">
                              <g id="l_d_2713" opacity="1" transform="matrix(1,0,0,1,0,0)">
                                <g id="l_d_2714" opacity="1" transform="matrix(1,0,0,1,40,36.91899871826172)">
                                  <path id="l_d_2715" stroke-linecap="round" stroke-linejoin="miter" fill-opacity="0" stroke-miterlimit="4" stroke="rgb(34,34,34)" stroke-opacity="1" stroke-width="2" d=" M0,-8.11400032043457 C3.318000078201294,-6.011000156402588 6,-1.3519999980926514 6,2.0280001163482666 C6,6.085000038146973 3.0380001068115234,8.11400032043457 0,8.11400032043457 C-2.990000009536743,8.11400032043457 -6,6.5920000076293945 -6,2.0280001163482666 C-6,0.33799999952316284 -5.166999816894531,-1.690000057220459 -3.5,-4.057000160217285 C-3.5,-4.057000160217285 -2,-3.0429999828338623 -2,-3.0429999828338623 C-2,-3.0429999828338623 -1.5,-7.544000148773193 0,-8.11400032043457z"></path>
                                </g>
                              </g>
                            </g>
                          </g>
                          <g id="l_d_2694" mask="url(#__lottie_element_1162_1)" style="display: block">
                            <g id="l_d_2693" transform="matrix(0,0,0,0,17,25.68499755859375)" opacity="1">
                              <g id="l_d_2697" opacity="1" transform="matrix(1,0,0,1,0,0)">
                                <g id="l_d_2698" opacity="1" transform="matrix(1,0,0,1,40,41.479000091552734)">
                                  <path id="l_d_2699" stroke-linecap="butt" stroke-linejoin="miter" fill-opacity="0" stroke-miterlimit="4" stroke="rgb(34,34,34)" stroke-opacity="1" stroke-width="2" d=" M0,3.244999885559082 C1.2369999885559082,3.244999885559082 2.25,2.1760001182556152 2.25,1.0809999704360962 C2.25,-0.10899999737739563 1.5,-1.5509999990463257 0,-3.244999885559082 C-1.5,-1.5509999990463257 -2.25,-0.10899999737739563 -2.25,1.0809999704360962 C-2.25,2.1760001182556152 -1.2369999885559082,3.244999885559082 0,3.244999885559082 C0,3.244999885559082 0,3.244999885559082 0,3.244999885559082z"></path>
                                </g>
                              </g>
                            </g>
                          </g>
                          <g id="l_d_2678" mask="url(#__lottie_element_1156_1)" style="display: block">
                            <g id="l_d_2677" transform="matrix(0,0,0,0,16.625,26.027999877929688)" opacity="1">
                              <g id="l_d_2681" opacity="1" transform="matrix(1,0,0,1,0,0)">
                                <g id="l_d_2682" opacity="1" transform="matrix(1,0,0,1,40,36.91899871826172)">
                                  <path id="l_d_2683" stroke-linecap="round" stroke-linejoin="miter" fill-opacity="0" stroke-miterlimit="4" stroke="rgb(34,34,34)" stroke-opacity="1" stroke-width="2" d=" M0,-8.11400032043457 C4,-4.732999801635742 6,-1.3519999980926514 6,2.0280001163482666 C6,6.085000038146973 3.0380001068115234,8.11400032043457 0,8.11400032043457 C-2.990000009536743,8.11400032043457 -6,6.5920000076293945 -6,2.0280001163482666 C-6,0.33799999952316284 -5.166999816894531,-1.690000057220459 -3.5,-4.057000160217285 C-3.5,-4.057000160217285 -2,-3.0429999828338623 -2,-3.0429999828338623 C-2,-3.0429999828338623 0,-8.11400032043457 0,-8.11400032043457z"></path>
                                </g>
                              </g>
                            </g>
                          </g>
                          <g id="l_d_2664" style="display: none">
                            <g id="l_d_2668"><path id="l_d_2669"></path></g>
                          </g>
                          <g id="l_d_2658" style="display: none">
                            <g id="l_d_2662"><path id="l_d_2663"></path></g>
                          </g>
                          <g id="l_d_2652" style="display: none">
                            <g id="l_d_2656"><path id="l_d_2657"></path></g>
                          </g>
                          <g id="l_d_2646" style="display: none">
                            <g id="l_d_2650"><path id="l_d_2651"></path></g>
                          </g>
                          <g id="l_d_2640" style="display: none">
                            <g id="l_d_2644"><path id="l_d_2645"></path></g>
                          </g>
                          <g id="l_d_2634" style="display: none">
                            <g id="l_d_2638"><path id="l_d_2639"></path></g>
                          </g>
                        </g>
                      </svg>