<svg xmlns="http://www.w3.org/2000/svg" xmlns:xlink="http://www.w3.org/1999/xlink" id="l_d_3275" width="45" height="45" preserveAspectRatio="xMidYMid meet" viewBox="0 0 45 45" style="width:100%;height:100%;transform:translate3d(0,0,0);content-visibility:visible"><defs id="l_d_3276"><clipPath id="__lottie_element_1430"><rect id="l_d_3279" width="45" height="45" x="0" y="0"/></clipPath><g id="__lottie_element_1433"><g id="l_d_3280" style="display:none"><g id="l_d_3285"><path id="l_d_3286"/></g></g></g><mask id="__lottie_element_1433_1" mask-type="alpha"><use id="l_d_3299" xlink:href="#__lottie_element_1433"/></mask><g id="__lottie_element_1448"><g id="l_d_3318" style="display:none"><g id="l_d_3323"><path id="l_d_3324"/></g></g></g><mask id="__lottie_element_1448_1" mask-type="alpha"><use id="l_d_3332" xlink:href="#__lottie_element_1448"/></mask></defs><g id="l_d_3277" clip-path="url(#__lottie_element_1430)"><g id="l_d_3326" mask="url(#__lottie_element_1448_1)" style="display:none"><g id="l_d_3325"><g id="l_d_3329"><path id="l_d_3330" fill-opacity="0" stroke-linecap="butt" stroke-linejoin="miter" stroke-miterlimit="4"/></g></g></g><g id="l_d_3312" opacity="1" transform="matrix(1,0,0,1,-22.625,-17.5)" style="display:block"><g id="l_d_3316" opacity="1" transform="matrix(1,0,0,1,40,40)"><path id="l_d_3317" fill-opacity="0" stroke="#222" stroke-linecap="butt" stroke-linejoin="miter" stroke-miterlimit="4" stroke-opacity="1" stroke-width="2" d="M-10,-12 C-10,-12 10,-12 10,-12 C12.208999633789062,-12 14,-10.208999633789062 14,-8 C14,-8 14,8 14,8 C14,10.208999633789062 12.208999633789062,12 10,12 C10,12 -10,12 -10,12 C-12.208999633789062,12 -14,10.208999633789062 -14,8 C-14,8 -14,-8 -14,-8 C-14,-10.208999633789062 -12.208999633789062,-12 -10,-12z"/></g></g><g id="l_d_3306" opacity="1" transform="matrix(1,0,0,1,-22.625,-17.5)" style="display:block"><g id="l_d_3310" opacity="1" transform="matrix(1,0,0,1,40,40)"><path id="l_d_3311" fill-opacity="0" stroke="#222" stroke-linecap="butt" stroke-linejoin="miter" stroke-miterlimit="4" stroke-opacity="1" stroke-width="2" d="M-2,2 C-2.062000036239624,2.875 -2,6 -2,6 C-2,6 2,6 2,6 C2,6 2,2 2,2 C2,2 6,2 6,2 C6,2 6,-2 6,-2 C6,-2 2,-2 2,-2 C2,-2 2,-6 2,-6 C2,-6 -2,-6 -2,-6 C-2,-6 -2,-2 -2,-2 C-2,-2 -6,-2 -6,-2 C-6,-2 -6,2 -6,2 C-6,2 -3,1.937999963760376 -2,2z"/></g></g><g id="l_d_3300" style="display:none"><g id="l_d_3304"><path id="l_d_3305" fill-opacity="0" stroke-linecap="butt" stroke-linejoin="miter" stroke-miterlimit="4"/></g></g><g id="l_d_3288" mask="url(#__lottie_element_1433_1)" style="display:none"><g id="l_d_3287"><g id="l_d_3291"><g id="l_d_3292"><path id="l_d_3293" fill-opacity="0" stroke-linecap="butt" stroke-linejoin="round"/></g><g id="l_d_3294"><path id="l_d_3295" fill-opacity="0" stroke-linecap="butt" stroke-linejoin="round"/></g><g id="l_d_3296"><path id="l_d_3297"/></g></g></g></g></g></svg>