<svg xmlns="http://www.w3.org/2000/svg" xmlns:xlink="http://www.w3.org/1999/xlink" id="l_d_2144" width="45" height="45" preserveAspectRatio="xMidYMid meet" viewBox="0 0 45 45" style="width:100%;height:100%;transform:translate3d(0,0,0);content-visibility:visible"><defs id="l_d_2145"><clipPath id="__lottie_element_952"><rect id="l_d_2148" width="45" height="45" x="0" y="0"/></clipPath><clipPath id="__lottie_element_954"><path id="l_d_2151" fill="#fff" clip-rule="nonzero"/><path id="l_d_2152" fill="#fff" clip-rule="nonzero"/></clipPath><clipPath id="__lottie_element_957"><path id="l_d_2159" fill="#fff" clip-rule="nonzero"/><path id="l_d_2160" fill="#fff" clip-rule="nonzero"/></clipPath><clipPath id="__lottie_element_960"><path id="l_d_2167" fill="#fff" clip-rule="nonzero"/><path id="l_d_2168" fill="#fff" clip-rule="nonzero"/></clipPath><clipPath id="__lottie_element_963"><path id="l_d_2175" fill="#fff" clip-rule="nonzero"/><path id="l_d_2176" fill="#fff" clip-rule="nonzero"/></clipPath><clipPath id="__lottie_element_966"><path id="l_d_2183" fill="#fff" clip-rule="nonzero"/><path id="l_d_2184" fill="#fff" clip-rule="nonzero"/></clipPath><clipPath id="__lottie_element_969"><path id="l_d_2191" fill="#fff" clip-rule="nonzero"/><path id="l_d_2192" fill="#fff" clip-rule="nonzero"/></clipPath><clipPath id="__lottie_element_972"><path id="l_d_2199" fill="#fff" clip-rule="nonzero"/><path id="l_d_2200" fill="#fff" clip-rule="nonzero"/></clipPath></defs><g id="l_d_2146" clip-path="url(#__lottie_element_952)"><g id="l_d_2223" opacity="1" transform="matrix(1.0000008344650269,0,0,1.0000008344650269,-24.00003433227539,-18.374406814575195)" style="display:block"><g id="l_d_2227" opacity="1" transform="matrix(1,0,0,1,51,50)"><path id="l_d_2228" fill-opacity="0" stroke="#222" stroke-linecap="butt" stroke-linejoin="miter" stroke-miterlimit="4" stroke-opacity="1" stroke-width="2" d="M-2,-2 C-2,-2 2,-2 2,-2 C2,-2 2,1 2,1 C2,1.5520000457763672 1.5520000457763672,2 1,2 C1,2 -1,2 -1,2 C-1.5520000457763672,2 -2,1.5520000457763672 -2,1 C-2,1 -2,-2 -2,-2 C-2,-2 -2,-2 -2,-2z"/></g><g id="l_d_2229" opacity="1" transform="matrix(1,0,0,1,29,50)"><path id="l_d_2230" fill-opacity="0" stroke="#222" stroke-linecap="butt" stroke-linejoin="miter" stroke-miterlimit="4" stroke-opacity="1" stroke-width="2" d="M-2,-2 C-2,-2 2,-2 2,-2 C2,-2 2,1 2,1 C2,1.5520000457763672 1.5520000457763672,2 1,2 C1,2 -1,2 -1,2 C-1.5520000457763672,2 -2,1.5520000457763672 -2,1 C-2,1 -2,-2 -2,-2 C-2,-2 -2,-2 -2,-2z"/></g></g><g id="l_d_2205" opacity="1" transform="matrix(1.0000008344650269,0,0,1.0000008344650269,-24.00003433227539,-18.374406814575195)" style="display:block"><g id="l_d_2209" opacity="1" transform="matrix(1,0,0,1,40,43)"><path id="l_d_2210" fill-opacity="0" stroke="#222" stroke-linecap="butt" stroke-linejoin="miter" stroke-miterlimit="4" stroke-opacity="1" stroke-width="2" d="M-9,-5 C-9,-5 9,-5 9,-5 C11.208999633789062,-5 13,-3.2090001106262207 13,-1 C13,-1 13,4 13,4 C13,4.552000045776367 12.552000045776367,5 12,5 C12,5 -12,5 -12,5 C-12.552000045776367,5 -13,4.552000045776367 -13,4 C-13,4 -13,-1 -13,-1 C-13,-3.2090001106262207 -11.208999633789062,-5 -9,-5z"/></g><g id="l_d_2211" opacity="1" transform="matrix(1,0,0,1,49,43)"><path id="l_d_2212" fill="#222" fill-opacity="1" d="M0,-1 C0.5519999861717224,-1 1,-0.5519999861717224 1,0 C1,0.5519999861717224 0.5519999861717224,1 0,1 C-0.5519999861717224,1 -1,0.5519999861717224 -1,0 C-1,-0.5519999861717224 -0.5519999861717224,-1 0,-1z"/></g><g id="l_d_2213" opacity="1" transform="matrix(1,0,0,1,31,43)"><path id="l_d_2214" fill="#222" fill-opacity="1" d="M0,-1 C0.5519999861717224,-1 1,-0.5519999861717224 1,0 C1,0.5519999861717224 0.5519999861717224,1 0,1 C-0.5519999861717224,1 -1,0.5519999861717224 -1,0 C-1,-0.5519999861717224 -0.5519999861717224,-1 0,-1z"/></g><g id="l_d_2215" opacity="1" transform="matrix(1,0,0,1,40,34)"><path id="l_d_2216" fill-opacity="0" stroke="#222" stroke-linecap="butt" stroke-linejoin="miter" stroke-miterlimit="4" stroke-opacity="1" stroke-width="2" d="M-7.307000160217285,-4 C-7.307000160217285,-4 7.307000160217285,-4 7.307000160217285,-4 C7.723999977111816,-4 8.097000122070312,-3.740999937057495 8.243000030517578,-3.3510000705718994 C8.243000030517578,-3.3510000705718994 11,4 11,4 C11,4 11,4 11,4 C11,4 -11,4 -11,4 C-11,4 -8.243000030517578,-3.3510000705718994 -8.243000030517578,-3.3510000705718994 C-8.097000122070312,-3.740999937057495 -7.723999977111816,-4 -7.307000160217285,-4z"/></g><g id="l_d_2217" opacity="1" transform="matrix(1,0,0,1,27.5,36)"><path id="l_d_2218" fill="#222" fill-opacity="1" d="M-1.5,-1 C-1.5,-1 1.5,-1 1.5,-1 C1.5,-1 1.5,1 1.5,1 C1.5,1 -1.5,1 -1.5,1 C-1.5,1 -1.5,-1 -1.5,-1z"/></g><g id="l_d_2219" opacity="1" transform="matrix(1,0,0,1,52.5,36)"><path id="l_d_2220" fill="#222" fill-opacity="1" d="M-1.5,-1 C-1.5,-1 1.5,-1 1.5,-1 C1.5,-1 1.5,1 1.5,1 C1.5,1 -1.5,1 -1.5,1 C-1.5,1 -1.5,-1 -1.5,-1z"/></g><g id="l_d_2221" opacity="1" transform="matrix(1,0,0,1,40,43)"><path id="l_d_2222" fill-opacity="0" stroke="#222" stroke-linecap="butt" stroke-linejoin="miter" stroke-miterlimit="4" stroke-opacity="1" stroke-width="2" d="M-6,0 C-6,0 6,0 6,0"/></g></g><g id="l_d_2197" clip-path="url(#__lottie_element_972)" style="display:none"><g id="l_d_2203"><path id="l_d_2204"/></g></g><g id="l_d_2189" clip-path="url(#__lottie_element_969)" style="display:none"><g id="l_d_2195"><path id="l_d_2196"/></g></g><g id="l_d_2181" clip-path="url(#__lottie_element_966)" style="display:none"><g id="l_d_2187"><path id="l_d_2188"/></g></g><g id="l_d_2173" clip-path="url(#__lottie_element_963)" style="display:none"><g id="l_d_2179"><path id="l_d_2180"/></g></g><g id="l_d_2165" clip-path="url(#__lottie_element_960)" style="display:none"><g id="l_d_2171"><path id="l_d_2172"/></g></g><g id="l_d_2157" clip-path="url(#__lottie_element_957)" style="display:none"><g id="l_d_2163"><path id="l_d_2164"/></g></g><g id="l_d_2149" clip-path="url(#__lottie_element_954)" style="display:none"><g id="l_d_2155"><path id="l_d_2156"/></g></g></g></svg>