<svg id="l_d_2348" xmlns="http://www.w3.org/2000/svg" xmlns:xlink="http://www.w3.org/1999/xlink" viewBox="0 0 45 45" width="45" height="45" preserveAspectRatio="xMidYMid meet" style="
                          width: 100%;
                          height: 100%;
                          transform: translate3d(0px, 0px, 0px);
                          content-visibility: visible;
                        ">
                        <defs id="l_d_2349">
                          <clipPath id="__lottie_element_1021">
                            <rect id="l_d_2352" width="45" height="45" x="0" y="0"></rect>
                          </clipPath>
                          <clipPath id="__lottie_element_1025">
                            <path id="l_d_2355" fill="#ffffff" clip-rule="nonzero" d=" M55.875,27.097000122070312 C55.875,27.097000122070312 30.70599937438965,27.097000122070312 30.70599937438965,27.097000122070312 C30.70599937438965,27.097000122070312 30.774999618530273,37.17499923706055 30.774999618530273,37.17499923706055 C30.774999618530273,37.17499923706055 55.944000244140625,37.17499923706055 55.944000244140625,37.17499923706055 C55.944000244140625,37.17499923706055 55.875,27.097000122070312 55.875,27.097000122070312" fill-opacity="1"></path>
                          </clipPath>
                          <clipPath id="__lottie_element_1028">
                            <path id="l_d_2362" fill="#ffffff" clip-rule="nonzero" d=" M55.900001525878906,25.996999740600586 C55.900001525878906,25.996999740600586 30.731000900268555,25.996999740600586 30.731000900268555,25.996999740600586 C30.731000900268555,25.996999740600586 30.75,35.875 30.75,35.875 C30.75,35.875 55.91899871826172,35.875 55.91899871826172,35.875 C55.91899871826172,35.875 55.900001525878906,25.996999740600586 55.900001525878906,25.996999740600586" fill-opacity="1"></path>
                          </clipPath>
                        </defs>
                        <g id="l_d_2350" clip-path="url(#__lottie_element_1021)">
                          <g id="l_d_2385" transform="matrix(1,0,0,1,-23,-17.5)" opacity="1" style="display: block">
                            <g id="l_d_2389" opacity="1" transform="matrix(1,0,0,1,40,46)">
                              <path id="l_d_2390" stroke-linecap="butt" stroke-linejoin="miter" fill-opacity="0" stroke-miterlimit="4" stroke="rgb(34,34,34)" stroke-opacity="1" stroke-width="2" d=" M-12,-8 C-12,-8 12,-8 12,-8 C12,-8 12,7 12,7 C12,7.552000045776367 11.552000045776367,8 11,8 C11,8 -11,8 -11,8 C-11.552000045776367,8 -12,7.552000045776367 -12,7 C-12,7 -12,-8 -12,-8 C-12,-8 -12,-8 -12,-8z"></path>
                            </g>
                            <g id="l_d_2391" opacity="1" transform="matrix(1,0,0,1,53.5,38)">
                              <path id="l_d_2392" stroke-linecap="butt" stroke-linejoin="miter" fill-opacity="0" stroke-miterlimit="4" stroke="rgb(34,34,34)" stroke-opacity="1" stroke-width="2" d=" M1.5,0 C1.5,0 -1.5,0 -1.5,0"></path>
                            </g>
                            <g id="l_d_2393" opacity="1" transform="matrix(1,0,0,1,26.5,38)">
                              <path id="l_d_2394" stroke-linecap="butt" stroke-linejoin="miter" fill-opacity="0" stroke-miterlimit="4" stroke="rgb(34,34,34)" stroke-opacity="1" stroke-width="2" d=" M1.5,0 C1.5,0 -1.5,0 -1.5,0"></path>
                            </g>
                          </g>
                          <g id="l_d_2367" transform="matrix(1,0,0,1,-23,-17.5)" opacity="1" style="display: block">
                            <g id="l_d_2371" opacity="1" transform="matrix(1,0,0,1,33.5,30.440000534057617)">
                              <path id="l_d_2372" fill="rgb(34,34,34)" fill-opacity="1" d=" M0,-4.440000057220459 C-2.4809999465942383,-4.440000057220459 -4.5,-2.4210000038146973 -4.5,0.05999999865889549 C-4.5,2.197000026702881 -3,3.9830000400543213 -1,4.440000057220459 C-1,4.440000057220459 -1,2.3489999771118164 -1,2.3489999771118164 C-1.88100004196167,1.9620000123977661 -2.5,1.0829999446868896 -2.5,0.05999999865889549 C-2.5,-1.3179999589920044 -1.378000020980835,-2.440000057220459 0,-2.440000057220459 C1.378000020980835,-2.440000057220459 2.5,-1.3179999589920044 2.5,0.05999999865889549 C2.5,1.0829999446868896 1.88100004196167,1.9620000123977661 1,2.3489999771118164 C1,2.3489999771118164 1,4.440000057220459 1,4.440000057220459 C3,3.9830000400543213 4.5,2.197000026702881 4.5,0.05999999865889549 C4.5,-2.4210000038146973 2.4809999465942383,-4.440000057220459 0,-4.440000057220459z"></path>
                            </g>
                          </g>
                          <g id="l_d_2379" transform="matrix(1,0,0,1,7.216999053955078,18.5)" opacity="1" style="display: block">
                            <g id="l_d_2383" opacity="1" transform="matrix(1,0,0,1,0,0)">
                              <path id="l_d_2384" stroke-linecap="butt" stroke-linejoin="miter" fill-opacity="0" stroke-miterlimit="4" stroke="rgb(34,34,34)" stroke-opacity="1" stroke-width="2" d=" M-2.2170000076293945,2 C-2.2170000076293945,-0.20900000631809235 -0.4259999990463257,-2 1.7829999923706055,-2 C1.7829999923706055,-2 1.5199999809265137,-2 1.5199999809265137,-2 C1.5199999809265137,-2 2.2170000076293945,-2 2.2170000076293945,-2"></path>
                            </g>
                          </g>
                          <g id="l_d_2373" transform="matrix(1,0,0,1,17.30099868774414,21)" opacity="1" style="display: block">
                            <g id="l_d_2377" opacity="1" transform="matrix(1,0,0,1,0,0)">
                              <path id="l_d_2378" stroke-linecap="butt" stroke-linejoin="miter" fill-opacity="0" stroke-miterlimit="4" stroke="rgb(34,34,34)" stroke-opacity="1" stroke-width="2" d=" M-5.698999881744385,-4.5 C-5.698999881744385,-4.5 -4.959000110626221,-4.5 -4.959000110626221,-4.5 C-3.8980000019073486,-4.5 -2.880000114440918,-4.078999996185303 -2.130000114440918,-3.3289999961853027 C-2.130000114440918,-3.3289999961853027 5.698999881744385,4.5 5.698999881744385,4.5"></path>
                            </g>
                          </g>
                          <g id="l_d_2360" clip-path="url(#__lottie_element_1028)" transform="matrix(1,0,0,1,-14.125,-18.375)" opacity="1" style="display: block">
                            <g id="l_d_2365" opacity="1" transform="matrix(1,0,0,1,35.99700164794922,9.467000007629395)">
                              <path id="l_d_2366" stroke-linecap="butt" stroke-linejoin="round" fill-opacity="0" stroke="rgb(34,34,34)" stroke-opacity="1" stroke-width="2" d=" M6.997000217437744,-5.4670000076293945 C7.001999855041504,-0.6340000033378601 3.003000020980835,0.6159999966621399 3.003000020980835,5.5329999923706055 C3.003000020980835,10.449999809265137 7.001999855041504,11.699999809265137 6.997000217437744,16.533000946044922 C6.992000102996826,21.365999221801758 3.003000020980835,22.700000762939453 3.003000020980835,27.533000946044922 M6.997000217437744,-27.533000946044922 C7.001999855041504,-22.700000762939453 3.003000020980835,-21.450000762939453 3.003000020980835,-16.533000946044922 C3.003000020980835,-11.616000175476074 7.001999855041504,-10.366000175476074 6.997000217437744,-5.5329999923706055 C6.997000217437744,-5.5329999923706055 6.997000217437744,-5.4670000076293945 6.997000217437744,-5.4670000076293945 C7.001999855041504,-0.6340000033378601 3.003000020980835,0.6159999966621399 3.003000020980835,5.5329999923706055 C3.003000020980835,10.449999809265137 7.001999855041504,11.699999809265137 6.997000217437744,16.533000946044922 C6.992000102996826,21.365999221801758 3.003000020980835,22.700000762939453 3.003000020980835,27.533000946044922"></path>
                            </g>
                          </g>
                          <g id="l_d_2353" clip-path="url(#__lottie_element_1025)" transform="matrix(1,0,0,1,-13.325000762939453,-19.575000762939453)" opacity="1" style="display: block">
                            <g id="l_d_2358" opacity="1" transform="matrix(1,0,0,1,35.99700164794922,9.467000007629395)">
                              <path id="l_d_2359" stroke-linecap="butt" stroke-linejoin="round" fill-opacity="0" stroke="rgb(34,34,34)" stroke-opacity="1" stroke-width="2" d=" M1.996999979019165,-5.4670000076293945 C2.002000093460083,-0.6340000033378601 -1.996999979019165,0.6159999966621399 -1.996999979019165,5.5329999923706055 C-1.996999979019165,10.449999809265137 2.002000093460083,11.699999809265137 1.996999979019165,16.533000946044922 C1.9919999837875366,21.365999221801758 -1.996999979019165,22.700000762939453 -1.996999979019165,27.533000946044922 M1.996999979019165,-27.533000946044922 C2.002000093460083,-22.700000762939453 -1.996999979019165,-21.450000762939453 -1.996999979019165,-16.533000946044922 C-1.996999979019165,-11.616000175476074 2.002000093460083,-10.366000175476074 1.996999979019165,-5.5329999923706055 C1.996999979019165,-5.5329999923706055 1.996999979019165,-5.4670000076293945 1.996999979019165,-5.4670000076293945 C2.002000093460083,-0.6340000033378601 -1.996999979019165,0.6159999966621399 -1.996999979019165,5.5329999923706055 C-1.996999979019165,10.449999809265137 2.002000093460083,11.699999809265137 1.996999979019165,16.533000946044922 C1.9919999837875366,21.365999221801758 -1.996999979019165,22.700000762939453 -1.996999979019165,27.533000946044922"></path>
                            </g>
                          </g>
                        </g>
                      </svg>