<svg xmlns="http://www.w3.org/2000/svg" xmlns:xlink="http://www.w3.org/1999/xlink" id="l_d_2590" width="45" height="45" preserveAspectRatio="xMidYMid meet" viewBox="0 0 45 45" style="width:100%;height:100%;transform:translate3d(0,0,0);content-visibility:visible"><defs id="l_d_2591"><clipPath id="__lottie_element_1118"><rect id="l_d_2594" width="45" height="45" x="0" y="0"/></clipPath></defs><g id="l_d_2592" clip-path="url(#__lottie_element_1118)"><g id="l_d_2617" opacity="1" transform="matrix(1,0,0,1,-22.875,-16.75)" style="display:block"><g id="l_d_2621" opacity="1" transform="matrix(1,0,0,1,0,0)"><g id="l_d_2622" opacity="1" transform="matrix(1,0,0,1,40,42)"><path id="l_d_2623" fill-opacity="0" stroke="#222" stroke-linecap="butt" stroke-linejoin="miter" stroke-miterlimit="4" stroke-opacity="1" stroke-width="2" d="M-8,-4 C-8,-4 -8,11 -8,11 C-8,11 -8,11 -8,11 C-8,11 -12,11 -12,11 C-12,11 -12,-11 -12,-11 C-12,-11 12,-11 12,-11 C12,-11 12,11 12,11 C12,11 8,11 8,11 C8,11 8,-4 8,-4 C8,-4.552000045776367 7.552000045776367,-5 7,-5 C7,-5 -7,-5 -7,-5 C-7.552000045776367,-5 -8,-4.552000045776367 -8,-4z"/></g><g id="l_d_2624" opacity="1" transform="matrix(1,0,0,1,40,31)"><path id="l_d_2625" fill-opacity="0" stroke="#222" stroke-linecap="butt" stroke-linejoin="round" stroke-opacity="1" stroke-width="2" d="M-15,0 C-15,0 15,0 15,0"/></g><g id="l_d_2626" opacity="1" transform="matrix(1,0,0,1,40,27)"><path id="l_d_2627" fill-opacity="0" stroke="#222" stroke-linecap="butt" stroke-linejoin="round" stroke-opacity="1" stroke-width="2" d="M-15,0 C-15,0 15,0 15,0"/></g></g></g><g id="l_d_2610" style="display:none"><g id="l_d_2614"><g id="l_d_2615"><path id="l_d_2616" fill-opacity="0" stroke-linecap="butt" stroke-linejoin="miter" stroke-miterlimit="4"/></g></g></g><g id="l_d_2604" style="display:none"><g id="l_d_2608"><path id="l_d_2609" fill-opacity="0" stroke-linecap="butt" stroke-linejoin="round"/></g></g><g id="l_d_2595" opacity="1" transform="matrix(1,0,0,1,-22.875,-16.75)" style="display:block"><g id="l_d_2599" opacity="1" transform="matrix(1,0,0,1,0,0)"><g id="l_d_2600" opacity="1" transform="matrix(1,0,0,1,40,47.63399887084961)"><path id="l_d_2601" fill-opacity="0" stroke="#222" stroke-linecap="butt" stroke-linejoin="miter" stroke-miterlimit="4" stroke-opacity="1" stroke-width="2" d="M0,-5.363999843597412 C2.6670000553131104,-3.061000108718872 4,-0.8180000185966492 4,1.3639999628067017 C4,3.572999954223633 2.2090001106262207,5.363999843597412 0,5.363999843597412 C-2.2090001106262207,5.363999843597412 -4,3.5460000038146973 -4,1.3639999628067017 C-4,-0.8180000185966492 -2.6670000553131104,-3.061000108718872 0,-5.363999843597412z"/></g></g><g id="l_d_2602" opacity="1" transform="matrix(1,0,0,1,40,51)"><path id="l_d_2603" fill-opacity="0" stroke="#222" stroke-linecap="butt" stroke-linejoin="round" stroke-opacity="1" stroke-width="2" d="M0,-2.25 C1.2430000305175781,-2.25 2.25,-1.2430000305175781 2.25,0 C2.25,1.2430000305175781 1.2430000305175781,2.25 0,2.25 C-1.2430000305175781,2.25 -2.25,1.2430000305175781 -2.25,0 C-2.25,-1.2430000305175781 -1.2430000305175781,-2.25 0,-2.25z"/></g></g></g></svg>