<svg id="l_d_2024" xmlns="http://www.w3.org/2000/svg" xmlns:xlink="http://www.w3.org/1999/xlink" viewBox="0 0 45 45" width="45" height="45" preserveAspectRatio="xMidYMid meet" style="
                          width: 100%;
                          height: 100%;
                          transform: translate3d(0px, 0px, 0px);
                          content-visibility: visible;
                        ">
                        <defs id="l_d_2025">
                          <clipPath id="__lottie_element_916">
                            <rect id="l_d_2028" width="45" height="45" x="0" y="0"></rect>
                          </clipPath>
                          <g id="__lottie_element_927">
                            <g id="l_d_2062" style="display: none">
                              <g id="l_d_2067"><path id="l_d_2068"></path></g>
                            </g>
                          </g>
                          <mask id="__lottie_element_927_1" mask-type="alpha">
                            <use id="l_d_2076" xlink:href="#__lottie_element_927"></use>
                          </mask>
                          <g id="__lottie_element_933">
                            <g id="l_d_2077" style="display: none">
                              <g id="l_d_2082"><path id="l_d_2083"></path></g>
                            </g>
                          </g>
                          <mask id="__lottie_element_933_1" mask-type="alpha">
                            <use id="l_d_2102" xlink:href="#__lottie_element_933"></use>
                          </mask>
                        </defs>
                        <g id="l_d_2026" clip-path="url(#__lottie_element_916)">
                          <g id="l_d_2103" transform="matrix(1,0,0,1,-23.5,-17.5)" opacity="1" style="display: block">
                            <g id="l_d_2107" opacity="1" transform="matrix(1,0,0,1,40,40)"></g>
                            <g id="l_d_2108" opacity="1" transform="matrix(1,0,0,1,40,40)">
                              <path id="l_d_2109" stroke-linecap="butt" stroke-linejoin="miter" fill-opacity="0" stroke-miterlimit="4" stroke="rgb(34,34,34)" stroke-opacity="1" stroke-width="2" d=" M-12,-13 C-12,-13 12,-13 12,-13 C12.552000045776367,-13 13,-12.552000045776367 13,-12 C13,-12 13,12 13,12 C13,12.552000045776367 12.552000045776367,13 12,13 C12,13 -12,13 -12,13 C-12.552000045776367,13 -13,12.552000045776367 -13,12 C-13,12 -13,-12 -13,-12 C-13,-12.552000045776367 -12.552000045776367,-13 -12,-13z"></path>
                            </g>
                            <g id="l_d_2110" opacity="1" transform="matrix(1,0,0,1,40,35)">
                              <path id="l_d_2111" stroke-linecap="butt" stroke-linejoin="miter" fill-opacity="0" stroke-miterlimit="4" stroke="rgb(34,34,34)" stroke-opacity="1" stroke-width="2" d=" M13,0 C13,0 -13,0 -13,0"></path>
                            </g>
                            <g id="l_d_2112" opacity="1" transform="matrix(1,0,0,1,49,31)">
                              <path id="l_d_2113" fill="rgb(0,0,0)" fill-opacity="1" d=" M0,-1 C0.5519999861717224,-1 1,-0.5519999861717224 1,0 C1,0.5519999861717224 0.5519999861717224,1 0,1 C-0.5519999861717224,1 -1,0.5519999861717224 -1,0 C-1,-0.5519999861717224 -0.5519999861717224,-1 0,-1z"></path>
                            </g>
                            <g id="l_d_2114" opacity="1" transform="matrix(1,0,0,1,43,31)">
                              <path id="l_d_2115" fill="rgb(0,0,0)" fill-opacity="1" d=" M0,-1 C0.5519999861717224,-1 1,-0.5519999861717224 1,0 C1,0.5519999861717224 0.5519999861717224,1 0,1 C-0.5519999861717224,1 -1,0.5519999861717224 -1,0 C-1,-0.5519999861717224 -0.5519999861717224,-1 0,-1z"></path>
                            </g>
                            <g id="l_d_2116" opacity="1" transform="matrix(1,0,0,1,37,31)">
                              <path id="l_d_2117" fill="rgb(0,0,0)" fill-opacity="1" d=" M0,-1 C0.5519999861717224,-1 1,-0.5519999861717224 1,0 C1,0.5519999861717224 0.5519999861717224,1 0,1 C-0.5519999861717224,1 -1,0.5519999861717224 -1,0 C-1,-0.5519999861717224 -0.5519999861717224,-1 0,-1z"></path>
                            </g>
                            <g id="l_d_2118" opacity="1" transform="matrix(1,0,0,1,31,31)">
                              <path id="l_d_2119" fill="rgb(0,0,0)" fill-opacity="1" d=" M0,-1 C0.5519999861717224,-1 1,-0.5519999861717224 1,0 C1,0.5519999861717224 0.5519999861717224,1 0,1 C-0.5519999861717224,1 -1,0.5519999861717224 -1,0 C-1,-0.5519999861717224 -0.5519999861717224,-1 0,-1z"></path>
                            </g>
                          </g>
                          <g id="l_d_2085" mask="url(#__lottie_element_933_1)" style="display: none">
                            <g id="l_d_2084">
                              <g id="l_d_2088"></g>
                              <g id="l_d_2089">
                                <path id="l_d_2090" stroke-linecap="butt" stroke-linejoin="miter" fill-opacity="0" stroke-miterlimit="4"></path>
                              </g>
                              <g id="l_d_2091">
                                <path id="l_d_2092" stroke-linecap="butt" stroke-linejoin="miter" fill-opacity="0" stroke-miterlimit="4"></path>
                              </g>
                              <g id="l_d_2093"><path id="l_d_2094"></path></g>
                              <g id="l_d_2095"><path id="l_d_2096"></path></g>
                              <g id="l_d_2097"><path id="l_d_2098"></path></g>
                              <g id="l_d_2099"><path id="l_d_2100"></path></g>
                            </g>
                          </g>
                          <g id="l_d_2070" mask="url(#__lottie_element_927_1)" style="display: none">
                            <g id="l_d_2069">
                              <g id="l_d_2073">
                                <path id="l_d_2074" stroke-linecap="butt" stroke-linejoin="round" fill-opacity="0"></path>
                              </g>
                            </g>
                          </g>
                          <g id="l_d_2045" style="display: none">
                            <g id="l_d_2049"></g>
                            <g id="l_d_2050">
                              <path id="l_d_2051" stroke-linecap="butt" stroke-linejoin="miter" fill-opacity="0" stroke-miterlimit="4"></path>
                            </g>
                            <g id="l_d_2052">
                              <path id="l_d_2053" stroke-linecap="butt" stroke-linejoin="miter" fill-opacity="0" stroke-miterlimit="4"></path>
                            </g>
                            <g id="l_d_2054"><path id="l_d_2055"></path></g>
                            <g id="l_d_2056"><path id="l_d_2057"></path></g>
                            <g id="l_d_2058"><path id="l_d_2059"></path></g>
                            <g id="l_d_2060"><path id="l_d_2061"></path></g>
                          </g>
                          <g id="l_d_2037" style="display: none">
                            <g id="l_d_2041">
                              <path id="l_d_2042" stroke-linecap="butt" stroke-linejoin="miter" fill-opacity="0" stroke-miterlimit="4"></path>
                            </g>
                            <g id="l_d_2043">
                              <path id="l_d_2044" stroke-linecap="butt" stroke-linejoin="miter" fill-opacity="0" stroke-miterlimit="4"></path>
                            </g>
                          </g>
                          <g id="l_d_2029" transform="matrix(1,0,0,1,-23.5,-17.5)" opacity="1" style="display: block">
                            <g id="l_d_2033" opacity="1" transform="matrix(1,0,0,1,40,44)">
                              <path id="l_d_2034" stroke-linecap="butt" stroke-linejoin="miter" fill-opacity="0" stroke-miterlimit="4" stroke="rgb(34,34,34)" stroke-opacity="1" stroke-width="2" d=" M-9,-5 C-9,-5 9,-5 9,-5 C9,-5 9,5 9,5 C9,5 -9,5 -9,5 C-9,5 -9,-5 -9,-5z"></path>
                            </g>
                            <g id="l_d_2035" opacity="1" transform="matrix(1,0,0,1,40,35)">
                              <path id="l_d_2036" stroke-linecap="butt" stroke-linejoin="miter" fill-opacity="0" stroke-miterlimit="4" stroke="rgb(34,34,34)" stroke-opacity="1" stroke-width="2" d=" M13,0 C13,0 -13,0 -13,0"></path>
                            </g>
                          </g>
                        </g>
                      </svg>