<svg xmlns="http://www.w3.org/2000/svg" xmlns:xlink="http://www.w3.org/1999/xlink" id="l_d_3081" width="45" height="45" preserveAspectRatio="xMidYMid meet" viewBox="0 0 45 45" style="width:100%;height:100%;transform:translate3d(0,0,0);content-visibility:visible"><defs id="l_d_3082"><clipPath id="__lottie_element_1346"><rect id="l_d_3085" width="45" height="45" x="0" y="0"/></clipPath><clipPath id="__lottie_element_1388"><path id="l_d_3180" d="M0,0 L80,0 L80,80 L0,80z"/></clipPath><g id="__lottie_element_1391"><g id="l_d_3183" style="display:none"><g id="l_d_3188"><path id="l_d_3189"/></g></g></g><mask id="__lottie_element_1391_1" mask-type="alpha"><use id="l_d_3197" xlink:href="#__lottie_element_1391"/></mask><clipPath id="__lottie_element_1398"><path id="l_d_3200" fill="#fff" fill-opacity="1" d="M41.37099838256836,34.875 C41.37099838256836,34.875 35,34.875 35,34.875 C35,34.875 35,57.104000091552734 35,57.104000091552734 C35,57.104000091552734 41.37099838256836,57.104000091552734 41.37099838256836,57.104000091552734 C41.37099838256836,57.104000091552734 41.37099838256836,34.875 41.37099838256836,34.875" clip-rule="nonzero"/></clipPath><clipPath id="__lottie_element_1401"><path id="l_d_3209" d="M0,0 L80,0 L80,80 L0,80z"/></clipPath><g id="__lottie_element_1404"><g id="l_d_3212" style="display:none"><g id="l_d_3217"><path id="l_d_3218"/></g></g></g><mask id="__lottie_element_1404_1" mask-type="alpha"><use id="l_d_3226" xlink:href="#__lottie_element_1404"/></mask><clipPath id="__lottie_element_1411"><path id="l_d_3229" fill="#fff" fill-opacity="1" d="M41.37099838256836,34.875 C41.37099838256836,34.875 35,34.875 35,34.875 C35,34.875 35,57.104000091552734 35,57.104000091552734 C35,57.104000091552734 41.37099838256836,57.104000091552734 41.37099838256836,57.104000091552734 C41.37099838256836,57.104000091552734 41.37099838256836,34.875 41.37099838256836,34.875" clip-rule="nonzero"/></clipPath><clipPath id="__lottie_element_1414"><path id="l_d_3238" d="M0,0 L80,0 L80,80 L0,80z"/></clipPath><g id="__lottie_element_1417"><g id="l_d_3241" style="display:none"><g id="l_d_3246"><path id="l_d_3247"/></g></g></g><mask id="__lottie_element_1417_1" mask-type="alpha"><use id="l_d_3255" xlink:href="#__lottie_element_1417"/></mask><clipPath id="__lottie_element_1424"><path id="l_d_3258" fill="#fff" fill-opacity="1" d="M41.37099838256836,34.875 C41.37099838256836,34.875 35,34.875 35,34.875 C35,34.875 35,57.104000091552734 35,57.104000091552734 C35,57.104000091552734 41.37099838256836,57.104000091552734 41.37099838256836,57.104000091552734 C41.37099838256836,57.104000091552734 41.37099838256836,34.875 41.37099838256836,34.875" clip-rule="nonzero"/></clipPath></defs><g id="l_d_3083" clip-path="url(#__lottie_element_1346)"><g id="l_d_3264" opacity="1" transform="matrix(1,0,0,1,-26,-17.25)" style="display:block"><g id="l_d_3268" opacity="1" transform="matrix(1,0,0,1,36.5,40.5)"><path id="l_d_3269" fill-opacity="0" stroke="#222" stroke-linecap="butt" stroke-linejoin="miter" stroke-miterlimit="4" stroke-opacity="1" stroke-width="2" d="M7.5,-10.5 C7.5,-10.5 7.5,-12.5 7.5,-12.5 C7.5,-13.604999542236328 6.605000019073486,-14.5 5.5,-14.5 C5.5,-14.5 -5.5,-14.5 -5.5,-14.5 C-6.605000019073486,-14.5 -7.5,-13.604999542236328 -7.5,-12.5 C-7.5,-12.5 -7.5,14.5 -7.5,14.5 C-7.5,14.5 -7.5,14.5 -7.5,14.5"/></g><g id="l_d_3270" opacity="1" transform="matrix(1,0,0,1,44,32)"><path id="l_d_3271" fill-opacity="0" stroke="#222" stroke-linecap="butt" stroke-linejoin="round" stroke-opacity="1" stroke-width="2" d="M6,-2 C6,-2 -6,-2 -6,-2 C-6,-2 -6,2 -6,2 C-6,2 6,2 6,2 C6,2 6,-2 6,-2z"/></g><g id="l_d_3272" opacity="1" transform="matrix(1,0,0,1,44,34)"><path id="l_d_3273" fill-opacity="0" stroke="#222" stroke-linecap="butt" stroke-linejoin="round" stroke-opacity="1" stroke-width="2" d="M-9,0 C-9,0 9,0 9,0"/></g></g><g id="l_d_3235" clip-path="url(#__lottie_element_1414)" opacity="1" transform="matrix(1,0,0,1,-26,-17.25)" style="display:block"><g id="l_d_3256" clip-path="url(#__lottie_element_1424)" opacity="1" transform="matrix(1,0,0,1,0,0)" style="display:block"><g id="l_d_3261" opacity="1" transform="matrix(1,0,0,1,0,0)"><g id="l_d_3262" opacity="1" transform="matrix(1,0,0,1,39,54)"><path id="l_d_3263" fill="#222" fill-opacity="1" d="M5,-17 C4.447999954223633,-17 4,-16.552000045776367 4,-16 C4,-15.447999954223633 4.447999954223633,-15 5,-15 C5.552000045776367,-15 6,-15.447999954223633 6,-16 C6,-16.552000045776367 5.552000045776367,-17 5,-17z M0,-17 C-0.5519999861717224,-17 -1,-16.552000045776367 -1,-16 C-1,-15.447999954223633 -0.5519999861717224,-15 0,-15 C0.5519999861717224,-15 1,-15.447999954223633 1,-16 C1,-16.552000045776367 0.5519999861717224,-17 0,-17z M10,-17 C9.447999954223633,-17 9,-16.552000045776367 9,-16 C9,-15.447999954223633 9.447999954223633,-15 10,-15 C10.552000045776367,-15 11,-15.447999954223633 11,-16 C11,-16.552000045776367 10.552000045776367,-17 10,-17z M5,-13 C4.447999954223633,-13 4,-12.552000045776367 4,-12 C4,-11.447999954223633 4.447999954223633,-11 5,-11 C5.552000045776367,-11 6,-11.447999954223633 6,-12 C6,-12.552000045776367 5.552000045776367,-13 5,-13z M10,-13 C9.447999954223633,-13 9,-12.552000045776367 9,-12 C9,-11.447999954223633 9.447999954223633,-11 10,-11 C10.552000045776367,-11 11,-11.447999954223633 11,-12 C11,-12.552000045776367 10.552000045776367,-13 10,-13z M0,-13 C-0.5519999861717224,-13 -1,-12.552000045776367 -1,-12 C-1,-11.447999954223633 -0.5519999861717224,-11 0,-11 C0.5519999861717224,-11 1,-11.447999954223633 1,-12 C1,-12.552000045776367 0.5519999861717224,-13 0,-13z M5,-9 C4.447999954223633,-9 4,-8.552000045776367 4,-8 C4,-7.447999954223633 4.447999954223633,-7 5,-7 C5.552000045776367,-7 6,-7.447999954223633 6,-8 C6,-8.552000045776367 5.552000045776367,-9 5,-9z M10,-9 C9.447999954223633,-9 9,-8.552000045776367 9,-8 C9,-7.447999954223633 9.447999954223633,-7 10,-7 C10.552000045776367,-7 11,-7.447999954223633 11,-8 C11,-8.552000045776367 10.552000045776367,-9 10,-9z M0,-9 C-0.5519999861717224,-9 -1,-8.552000045776367 -1,-8 C-1,-7.447999954223633 -0.5519999861717224,-7 0,-7 C0.5519999861717224,-7 1,-7.447999954223633 1,-8 C1,-8.552000045776367 0.5519999861717224,-9 0,-9z M5,-5 C4.447999954223633,-5 4,-4.552000045776367 4,-4 C4,-3.447999954223633 4.447999954223633,-3 5,-3 C5.552000045776367,-3 6,-3.447999954223633 6,-4 C6,-4.552000045776367 5.552000045776367,-5 5,-5z M10,-5 C9.447999954223633,-5 9,-4.552000045776367 9,-4 C9,-3.447999954223633 9.447999954223633,-3 10,-3 C10.552000045776367,-3 11,-3.447999954223633 11,-4 C11,-4.552000045776367 10.552000045776367,-5 10,-5z M0,-5 C-0.5519999861717224,-5 -1,-4.552000045776367 -1,-4 C-1,-3.447999954223633 -0.5519999861717224,-3 0,-3 C0.5519999861717224,-3 1,-3.447999954223633 1,-4 C1,-4.552000045776367 0.5519999861717224,-5 0,-5z M5,-1 C4.447999954223633,-1 4,-0.5519999861717224 4,0 C4,0.5519999861717224 4.447999954223633,1 5,1 C5.552000045776367,1 6,0.5519999861717224 6,0 C6,-0.5519999861717224 5.552000045776367,-1 5,-1z M10,-1 C9.447999954223633,-1 9,-0.5519999861717224 9,0 C9,0.5519999861717224 9.447999954223633,1 10,1 C10.552000045776367,1 11,0.5519999861717224 11,0 C11,-0.5519999861717224 10.552000045776367,-1 10,-1z M0,-1 C-0.5519999861717224,-1 -1,-0.5519999861717224 -1,0 C-1,0.5519999861717224 -0.5519999861717224,1 0,1 C0.5519999861717224,1 1,0.5519999861717224 1,0 C1,-0.5519999861717224 0.5519999861717224,-1 0,-1z"/></g></g></g><g id="l_d_3249" mask="url(#__lottie_element_1417_1)" style="display:block"><g id="l_d_3248" opacity="1" transform="matrix(1,0,0,1,40,30)"><g id="l_d_3252" opacity="1" transform="matrix(1,0,0,1,0,0)"><path id="l_d_3253" fill-opacity="0" stroke="#222" stroke-dasharray=".1 4" stroke-dashoffset="6" stroke-linecap="round" stroke-linejoin="miter" stroke-miterlimit="4" stroke-opacity="1" stroke-width="2" d="M-1.00600004196167,-29.00200080871582 C-1.00600004196167,-29.00200080871582 -1.0119999647140503,30.87299919128418 -1.0119999647140503,30.87299919128418"/></g></g></g></g><g id="l_d_3206" clip-path="url(#__lottie_element_1401)" opacity="1" transform="matrix(1,0,0,1,-21,-17.25)" style="display:block"><g id="l_d_3227" clip-path="url(#__lottie_element_1411)" opacity="1" transform="matrix(1,0,0,1,0,0)" style="display:block"><g id="l_d_3232" opacity="1" transform="matrix(1,0,0,1,0,0)"><g id="l_d_3233" opacity="1" transform="matrix(1,0,0,1,39,54)"><path id="l_d_3234" fill="#222" fill-opacity="1" d="M5,-17 C4.447999954223633,-17 4,-16.552000045776367 4,-16 C4,-15.447999954223633 4.447999954223633,-15 5,-15 C5.552000045776367,-15 6,-15.447999954223633 6,-16 C6,-16.552000045776367 5.552000045776367,-17 5,-17z M0,-17 C-0.5519999861717224,-17 -1,-16.552000045776367 -1,-16 C-1,-15.447999954223633 -0.5519999861717224,-15 0,-15 C0.5519999861717224,-15 1,-15.447999954223633 1,-16 C1,-16.552000045776367 0.5519999861717224,-17 0,-17z M10,-17 C9.447999954223633,-17 9,-16.552000045776367 9,-16 C9,-15.447999954223633 9.447999954223633,-15 10,-15 C10.552000045776367,-15 11,-15.447999954223633 11,-16 C11,-16.552000045776367 10.552000045776367,-17 10,-17z M5,-13 C4.447999954223633,-13 4,-12.552000045776367 4,-12 C4,-11.447999954223633 4.447999954223633,-11 5,-11 C5.552000045776367,-11 6,-11.447999954223633 6,-12 C6,-12.552000045776367 5.552000045776367,-13 5,-13z M10,-13 C9.447999954223633,-13 9,-12.552000045776367 9,-12 C9,-11.447999954223633 9.447999954223633,-11 10,-11 C10.552000045776367,-11 11,-11.447999954223633 11,-12 C11,-12.552000045776367 10.552000045776367,-13 10,-13z M0,-13 C-0.5519999861717224,-13 -1,-12.552000045776367 -1,-12 C-1,-11.447999954223633 -0.5519999861717224,-11 0,-11 C0.5519999861717224,-11 1,-11.447999954223633 1,-12 C1,-12.552000045776367 0.5519999861717224,-13 0,-13z M5,-9 C4.447999954223633,-9 4,-8.552000045776367 4,-8 C4,-7.447999954223633 4.447999954223633,-7 5,-7 C5.552000045776367,-7 6,-7.447999954223633 6,-8 C6,-8.552000045776367 5.552000045776367,-9 5,-9z M10,-9 C9.447999954223633,-9 9,-8.552000045776367 9,-8 C9,-7.447999954223633 9.447999954223633,-7 10,-7 C10.552000045776367,-7 11,-7.447999954223633 11,-8 C11,-8.552000045776367 10.552000045776367,-9 10,-9z M0,-9 C-0.5519999861717224,-9 -1,-8.552000045776367 -1,-8 C-1,-7.447999954223633 -0.5519999861717224,-7 0,-7 C0.5519999861717224,-7 1,-7.447999954223633 1,-8 C1,-8.552000045776367 0.5519999861717224,-9 0,-9z M5,-5 C4.447999954223633,-5 4,-4.552000045776367 4,-4 C4,-3.447999954223633 4.447999954223633,-3 5,-3 C5.552000045776367,-3 6,-3.447999954223633 6,-4 C6,-4.552000045776367 5.552000045776367,-5 5,-5z M10,-5 C9.447999954223633,-5 9,-4.552000045776367 9,-4 C9,-3.447999954223633 9.447999954223633,-3 10,-3 C10.552000045776367,-3 11,-3.447999954223633 11,-4 C11,-4.552000045776367 10.552000045776367,-5 10,-5z M0,-5 C-0.5519999861717224,-5 -1,-4.552000045776367 -1,-4 C-1,-3.447999954223633 -0.5519999861717224,-3 0,-3 C0.5519999861717224,-3 1,-3.447999954223633 1,-4 C1,-4.552000045776367 0.5519999861717224,-5 0,-5z M5,-1 C4.447999954223633,-1 4,-0.5519999861717224 4,0 C4,0.5519999861717224 4.447999954223633,1 5,1 C5.552000045776367,1 6,0.5519999861717224 6,0 C6,-0.5519999861717224 5.552000045776367,-1 5,-1z M10,-1 C9.447999954223633,-1 9,-0.5519999861717224 9,0 C9,0.5519999861717224 9.447999954223633,1 10,1 C10.552000045776367,1 11,0.5519999861717224 11,0 C11,-0.5519999861717224 10.552000045776367,-1 10,-1z M0,-1 C-0.5519999861717224,-1 -1,-0.5519999861717224 -1,0 C-1,0.5519999861717224 -0.5519999861717224,1 0,1 C0.5519999861717224,1 1,0.5519999861717224 1,0 C1,-0.5519999861717224 0.5519999861717224,-1 0,-1z"/></g></g></g><g id="l_d_3220" mask="url(#__lottie_element_1404_1)" style="display:block"><g id="l_d_3219" opacity="1" transform="matrix(1,0,0,1,40,30)"><g id="l_d_3223" opacity="1" transform="matrix(1,0,0,1,0,0)"><path id="l_d_3224" fill-opacity="0" stroke="#222" stroke-dasharray=".1 4" stroke-dashoffset="6" stroke-linecap="round" stroke-linejoin="miter" stroke-miterlimit="4" stroke-opacity="1" stroke-width="2" d="M-1.00600004196167,-29.00200080871582 C-1.00600004196167,-29.00200080871582 -1.0119999647140503,30.87299919128418 -1.0119999647140503,30.87299919128418"/></g></g></g></g><g id="l_d_3177" clip-path="url(#__lottie_element_1388)" opacity="1" transform="matrix(1,0,0,1,-16.08300018310547,-17.25)" style="display:block"><g id="l_d_3198" clip-path="url(#__lottie_element_1398)" opacity="1" transform="matrix(1,0,0,1,0,0)" style="display:block"><g id="l_d_3203" opacity="1" transform="matrix(1,0,0,1,0,0)"><g id="l_d_3204" opacity="1" transform="matrix(1,0,0,1,39,54)"><path id="l_d_3205" fill="#222" fill-opacity="1" d="M5,-17 C4.447999954223633,-17 4,-16.552000045776367 4,-16 C4,-15.447999954223633 4.447999954223633,-15 5,-15 C5.552000045776367,-15 6,-15.447999954223633 6,-16 C6,-16.552000045776367 5.552000045776367,-17 5,-17z M0,-17 C-0.5519999861717224,-17 -1,-16.552000045776367 -1,-16 C-1,-15.447999954223633 -0.5519999861717224,-15 0,-15 C0.5519999861717224,-15 1,-15.447999954223633 1,-16 C1,-16.552000045776367 0.5519999861717224,-17 0,-17z M10,-17 C9.447999954223633,-17 9,-16.552000045776367 9,-16 C9,-15.447999954223633 9.447999954223633,-15 10,-15 C10.552000045776367,-15 11,-15.447999954223633 11,-16 C11,-16.552000045776367 10.552000045776367,-17 10,-17z M5,-13 C4.447999954223633,-13 4,-12.552000045776367 4,-12 C4,-11.447999954223633 4.447999954223633,-11 5,-11 C5.552000045776367,-11 6,-11.447999954223633 6,-12 C6,-12.552000045776367 5.552000045776367,-13 5,-13z M10,-13 C9.447999954223633,-13 9,-12.552000045776367 9,-12 C9,-11.447999954223633 9.447999954223633,-11 10,-11 C10.552000045776367,-11 11,-11.447999954223633 11,-12 C11,-12.552000045776367 10.552000045776367,-13 10,-13z M0,-13 C-0.5519999861717224,-13 -1,-12.552000045776367 -1,-12 C-1,-11.447999954223633 -0.5519999861717224,-11 0,-11 C0.5519999861717224,-11 1,-11.447999954223633 1,-12 C1,-12.552000045776367 0.5519999861717224,-13 0,-13z M5,-9 C4.447999954223633,-9 4,-8.552000045776367 4,-8 C4,-7.447999954223633 4.447999954223633,-7 5,-7 C5.552000045776367,-7 6,-7.447999954223633 6,-8 C6,-8.552000045776367 5.552000045776367,-9 5,-9z M10,-9 C9.447999954223633,-9 9,-8.552000045776367 9,-8 C9,-7.447999954223633 9.447999954223633,-7 10,-7 C10.552000045776367,-7 11,-7.447999954223633 11,-8 C11,-8.552000045776367 10.552000045776367,-9 10,-9z M0,-9 C-0.5519999861717224,-9 -1,-8.552000045776367 -1,-8 C-1,-7.447999954223633 -0.5519999861717224,-7 0,-7 C0.5519999861717224,-7 1,-7.447999954223633 1,-8 C1,-8.552000045776367 0.5519999861717224,-9 0,-9z M5,-5 C4.447999954223633,-5 4,-4.552000045776367 4,-4 C4,-3.447999954223633 4.447999954223633,-3 5,-3 C5.552000045776367,-3 6,-3.447999954223633 6,-4 C6,-4.552000045776367 5.552000045776367,-5 5,-5z M10,-5 C9.447999954223633,-5 9,-4.552000045776367 9,-4 C9,-3.447999954223633 9.447999954223633,-3 10,-3 C10.552000045776367,-3 11,-3.447999954223633 11,-4 C11,-4.552000045776367 10.552000045776367,-5 10,-5z M0,-5 C-0.5519999861717224,-5 -1,-4.552000045776367 -1,-4 C-1,-3.447999954223633 -0.5519999861717224,-3 0,-3 C0.5519999861717224,-3 1,-3.447999954223633 1,-4 C1,-4.552000045776367 0.5519999861717224,-5 0,-5z M5,-1 C4.447999954223633,-1 4,-0.5519999861717224 4,0 C4,0.5519999861717224 4.447999954223633,1 5,1 C5.552000045776367,1 6,0.5519999861717224 6,0 C6,-0.5519999861717224 5.552000045776367,-1 5,-1z M10,-1 C9.447999954223633,-1 9,-0.5519999861717224 9,0 C9,0.5519999861717224 9.447999954223633,1 10,1 C10.552000045776367,1 11,0.5519999861717224 11,0 C11,-0.5519999861717224 10.552000045776367,-1 10,-1z M0,-1 C-0.5519999861717224,-1 -1,-0.5519999861717224 -1,0 C-1,0.5519999861717224 -0.5519999861717224,1 0,1 C0.5519999861717224,1 1,0.5519999861717224 1,0 C1,-0.5519999861717224 0.5519999861717224,-1 0,-1z"/></g></g></g><g id="l_d_3191" mask="url(#__lottie_element_1391_1)" style="display:block"><g id="l_d_3190" opacity="1" transform="matrix(1,0,0,1,40,30)"><g id="l_d_3194" opacity="1" transform="matrix(1,0,0,1,0,0)"><path id="l_d_3195" fill-opacity="0" stroke="#222" stroke-dasharray=".1 4" stroke-dashoffset="6" stroke-linecap="round" stroke-linejoin="miter" stroke-miterlimit="4" stroke-opacity="1" stroke-width="2" d="M-1.00600004196167,-29.00200080871582 C-1.00600004196167,-29.00200080871582 -1.0119999647140503,30.87299919128418 -1.0119999647140503,30.87299919128418"/></g></g></g></g><g id="l_d_3170" style="display:none"><g id="l_d_3174"><g id="l_d_3175"><path id="l_d_3176"/></g></g></g><g id="l_d_3163" style="display:none"><g id="l_d_3167"><g id="l_d_3168"><path id="l_d_3169"/></g></g></g><g id="l_d_3156" style="display:none"><g id="l_d_3160"><g id="l_d_3161"><path id="l_d_3162"/></g></g></g><g id="l_d_3149" style="display:none"><g id="l_d_3153"><g id="l_d_3154"><path id="l_d_3155"/></g></g></g><g id="l_d_3142" style="display:none"><g id="l_d_3146"><g id="l_d_3147"><path id="l_d_3148"/></g></g></g><g id="l_d_3135" style="display:none"><g id="l_d_3139"><g id="l_d_3140"><path id="l_d_3141"/></g></g></g><g id="l_d_3128" style="display:none"><g id="l_d_3132"><g id="l_d_3133"><path id="l_d_3134"/></g></g></g><g id="l_d_3121" style="display:none"><g id="l_d_3125"><g id="l_d_3126"><path id="l_d_3127"/></g></g></g><g id="l_d_3114" style="display:none"><g id="l_d_3118"><g id="l_d_3119"><path id="l_d_3120"/></g></g></g><g id="l_d_3107" style="display:none"><g id="l_d_3111"><g id="l_d_3112"><path id="l_d_3113"/></g></g></g><g id="l_d_3100" style="display:none"><g id="l_d_3104"><g id="l_d_3105"><path id="l_d_3106"/></g></g></g><g id="l_d_3093" style="display:none"><g id="l_d_3097"><g id="l_d_3098"><path id="l_d_3099"/></g></g></g><g id="l_d_3086" style="display:none"><g id="l_d_3090"><g id="l_d_3091"><path id="l_d_3092"/></g></g></g></g></svg>