<svg id="l_d_2396" xmlns="http://www.w3.org/2000/svg" xmlns:xlink="http://www.w3.org/1999/xlink" viewBox="0 0 45 45" width="45" height="45" preserveAspectRatio="xMidYMid meet" style="
                          width: 100%;
                          height: 100%;
                          transform: translate3d(0px, 0px, 0px);
                          content-visibility: visible;
                        ">
                        <defs id="l_d_2397">
                          <clipPath id="__lottie_element_1043">
                            <rect id="l_d_2400" width="45" height="45" x="0" y="0"></rect>
                          </clipPath>
                          <clipPath id="__lottie_element_1049">
                            <path id="l_d_2425" d="M0,0 L80,0 L80,80 L0,80z"></path>
                          </clipPath>
                          <clipPath id="__lottie_element_1056">
                            <path id="l_d_2438" d="M0,0 L80,0 L80,80 L0,80z"></path>
                          </clipPath>
                        </defs>
                        <g id="l_d_2398" clip-path="url(#__lottie_element_1043)">
                          <g id="l_d_2435" clip-path="url(#__lottie_element_1056)" transform="matrix(1,0,0,1,-25,-17.625)" opacity="1" style="display: block">
                            <g id="l_d_2441" transform="matrix(1,0,0,1,0,0)" opacity="1" style="display: block">
                              <g id="l_d_2445" opacity="1" transform="matrix(1,0,0,1,0,0)">
                                <g id="l_d_2446" opacity="1" transform="matrix(1,0,0,1,40,35)">
                                  <path id="l_d_2447" stroke-linecap="butt" stroke-linejoin="miter" fill-opacity="0" stroke-miterlimit="4" stroke="rgb(34,34,34)" stroke-opacity="1" stroke-width="2" d=" M0,-9 C4.418000221252441,-9 8,-5.418000221252441 8,-1 C8,-1 8,9 8,9 C8,9 0,9 0,9 C0,9 0,-5.875 0,-9z M-0.08299999684095383,1 C-0.08299999684095383,1 8,1 8,1 M0,-9.925999641418457 C0,-9.925999641418457 0,-7.125 0,-7.125 C0,-7.125 0,9 0,9"></path>
                                </g>
                              </g>
                            </g>
                          </g>
                          <g id="l_d_2422" clip-path="url(#__lottie_element_1049)" transform="matrix(-1,0,0,1,55,-17.625)" opacity="1" style="display: block">
                            <g id="l_d_2428" transform="matrix(1,0,0,1,0,0)" opacity="1" style="display: block">
                              <g id="l_d_2432" opacity="1" transform="matrix(1,0,0,1,0,0)">
                                <g id="l_d_2433" opacity="1" transform="matrix(1,0,0,1,40,35)">
                                  <path id="l_d_2434" stroke-linecap="butt" stroke-linejoin="miter" fill-opacity="0" stroke-miterlimit="4" stroke="rgb(34,34,34)" stroke-opacity="1" stroke-width="2" d=" M0,-9 C4.418000221252441,-9 8,-5.418000221252441 8,-1 C8,-1 8,9 8,9 C8,9 0,9 0,9 C0,9 0,-5.875 0,-9z M-0.08299999684095383,1 C-0.08299999684095383,1 8,1 8,1 M0,-9.925999641418457 C0,-9.925999641418457 0,-7.125 0,-7.125 C0,-7.125 0,9 0,9"></path>
                                </g>
                              </g>
                            </g>
                          </g>
                          <g id="l_d_2401" transform="matrix(1,0,0,1,-25,-17.625)" opacity="1" style="display: block">
                            <g id="l_d_2405" opacity="1" transform="matrix(1,0,0,1,0,0)">
                              <g id="l_d_2406" opacity="1" transform="matrix(1,0,0,1,50,49)">
                                <path id="l_d_2407" stroke-linecap="butt" stroke-linejoin="miter" fill-opacity="0" stroke-miterlimit="4" stroke="rgb(34,34,34)" stroke-opacity="1" stroke-width="2" d=" M0,-5 C0,-5 0,5 0,5"></path>
                              </g>
                              <g id="l_d_2408" opacity="1" transform="matrix(1,0,0,1,46,49)">
                                <path id="l_d_2409" stroke-linecap="butt" stroke-linejoin="miter" fill-opacity="0" stroke-miterlimit="4" stroke="rgb(34,34,34)" stroke-opacity="1" stroke-width="2" d=" M0,-5 C0,-5 0,5 0,5"></path>
                              </g>
                              <g id="l_d_2410" opacity="1" transform="matrix(1,0,0,1,42,49)">
                                <path id="l_d_2411" stroke-linecap="butt" stroke-linejoin="miter" fill-opacity="0" stroke-miterlimit="4" stroke="rgb(34,34,34)" stroke-opacity="1" stroke-width="2" d=" M0,-5 C0,-5 0,5 0,5"></path>
                              </g>
                              <g id="l_d_2412" opacity="1" transform="matrix(1,0,0,1,38,49)">
                                <path id="l_d_2413" stroke-linecap="butt" stroke-linejoin="miter" fill-opacity="0" stroke-miterlimit="4" stroke="rgb(34,34,34)" stroke-opacity="1" stroke-width="2" d=" M0,-5 C0,-5 0,5 0,5"></path>
                              </g>
                              <g id="l_d_2414" opacity="1" transform="matrix(1,0,0,1,34,49)">
                                <path id="l_d_2415" stroke-linecap="butt" stroke-linejoin="miter" fill-opacity="0" stroke-miterlimit="4" stroke="rgb(34,34,34)" stroke-opacity="1" stroke-width="2" d=" M0,-5 C0,-5 0,5 0,5"></path>
                              </g>
                              <g id="l_d_2416" opacity="1" transform="matrix(1,0,0,1,30,49)">
                                <path id="l_d_2417" stroke-linecap="butt" stroke-linejoin="miter" fill-opacity="0" stroke-miterlimit="4" stroke="rgb(34,34,34)" stroke-opacity="1" stroke-width="2" d=" M0,-5 C0,-5 0,5 0,5"></path>
                              </g>
                              <g id="l_d_2418" opacity="1" transform="matrix(1,0,0,1,40,54)">
                                <path id="l_d_2419" stroke-linecap="butt" stroke-linejoin="miter" fill-opacity="0" stroke-miterlimit="4" stroke="rgb(34,34,34)" stroke-opacity="1" stroke-width="2" d=" M-13,0 C-13,0 13,0 13,0"></path>
                              </g>
                              <g id="l_d_2420" opacity="1" transform="matrix(1,0,0,1,40,44)">
                                <path id="l_d_2421" stroke-linecap="butt" stroke-linejoin="miter" fill-opacity="0" stroke-miterlimit="4" stroke="rgb(34,34,34)" stroke-opacity="1" stroke-width="2" d=" M-13,0 C-13,0 13,0 13,0"></path>
                              </g>
                            </g>
                          </g>
                        </g>
                      </svg>