<svg id="l_d_3334" xmlns="http://www.w3.org/2000/svg" xmlns:xlink="http://www.w3.org/1999/xlink" viewBox="0 0 45 45" width="45" height="45" preserveAspectRatio="xMidYMid meet" style="
                          width: 100%;
                          height: 100%;
                          transform: translate3d(0px, 0px, 0px);
                          content-visibility: visible;
                        ">
                        <defs id="l_d_3335">
                          <clipPath id="__lottie_element_1455">
                            <rect id="l_d_3338" width="45" height="45" x="0" y="0"></rect>
                          </clipPath>
                        </defs>
                        <g id="l_d_3336" clip-path="url(#__lottie_element_1455)">
                          <g id="l_d_3362" transform="matrix(1,0,0,1,-23,-17.25)" opacity="1" style="display: block">
                            <g id="l_d_3366" opacity="1" transform="matrix(1,0,0,1,47,33)">
                              <path id="l_d_3367" fill="rgb(0,0,0)" fill-opacity="1" d=" M0,-1 C0.5519999861717224,-1 1,-0.5519999861717224 1,0 C1,0.5519999861717224 0.5519999861717224,1 0,1 C-0.5519999861717224,1 -1,0.5519999861717224 -1,0 C-1,-0.5519999861717224 -0.5519999861717224,-1 0,-1z"></path>
                            </g>
                          </g>
                          <g id="l_d_3344" transform="matrix(1,0,0,1,-23,-17.25)" opacity="1" style="display: block">
                            <g id="l_d_3348" opacity="1" transform="matrix(1,0,0,1,40,40)">
                              <path id="l_d_3349" stroke-linecap="butt" stroke-linejoin="miter" fill-opacity="0" stroke-miterlimit="4" stroke="rgb(34,34,34)" stroke-opacity="1" stroke-width="2" d=" M0,-14 C7.73199987411499,-14 14,-7.73199987411499 14,0 C14,7.73199987411499 7.73199987411499,14 0,14 C-7.73199987411499,14 -14,7.73199987411499 -14,0 C-14,-7.73199987411499 -7.73199987411499,-14 0,-14z"></path>
                            </g>
                            <g id="l_d_3350" opacity="1" transform="matrix(1,0,0,1,0,0)"></g>
                            <g id="l_d_3351" opacity="1" transform="matrix(1,0,0,1,0,0)">
                              <g id="l_d_3352" opacity="1" transform="matrix(1,0,0,1,43.95800018310547,43.96099853515625)">
                                <path id="l_d_3353" fill="rgb(34,34,34)" fill-opacity="1" d=" M0.9309999942779541,-2.9609999656677246 C0.5329999923706055,-1.0080000162124634 -1.0010000467300415,0.5350000262260437 -2.9579999446868896,0.9330000281333923 C-2.9579999446868896,0.9330000281333923 -2.9579999446868896,2.9609999656677246 -2.9579999446868896,2.9609999656677246 C-2.86899995803833,2.947999954223633 -2.7799999713897705,2.940000057220459 -2.691999912261963,2.9240000247955322 C0.18799999356269836,2.3980000019073486 2.453000068664551,0.10499999672174454 2.943000078201294,-2.7820000648498535 C2.953000068664551,-2.8410000801086426 2.950000047683716,-2.9019999504089355 2.9579999446868896,-2.9609999656677246 C2.9579999446868896,-2.9609999656677246 0.9309999942779541,-2.9609999656677246 0.9309999942779541,-2.9609999656677246z"></path>
                              </g>
                              <g id="l_d_3354" opacity="1" transform="matrix(1,0,0,1,43.95899963378906,36.04100036621094)">
                                <path id="l_d_3355" fill="rgb(34,34,34)" fill-opacity="1" d=" M2.944999933242798,2.7899999618530273 C2.4489998817443848,-0.15600000321865082 0.13500000536441803,-2.4619998931884766 -2.812000036239624,-2.947999954223633 C-2.859999895095825,-2.9560000896453857 -2.9110000133514404,-2.9519999027252197 -2.9590001106262207,-2.9590001106262207 C-2.9590001106262207,-2.9590001106262207 -2.9590001106262207,-0.9300000071525574 -2.9590001106262207,-0.9300000071525574 C-0.9980000257492065,-0.5320000052452087 0.5329999923706055,0.996999979019165 0.9309999942779541,2.9590001106262207 C0.9309999942779541,2.9590001106262207 2.9590001106262207,2.9590001106262207 2.9590001106262207,2.9590001106262207 C2.9509999752044678,2.9030001163482666 2.9539999961853027,2.8450000286102295 2.944999933242798,2.7899999618530273z"></path>
                              </g>
                              <g id="l_d_3356" opacity="1" transform="matrix(1,0,0,1,36.042999267578125,43.95899963378906)">
                                <path id="l_d_3357" fill="rgb(34,34,34)" fill-opacity="1" d=" M2.9570000171661377,0.9300000071525574 C0.9980000257492065,0.531000018119812 -0.5350000262260437,-0.996999979019165 -0.9330000281333923,-2.9590001106262207 C-0.9330000281333923,-2.9590001106262207 -2.9570000171661377,-2.9590001106262207 -2.9570000171661377,-2.9590001106262207 C-2.947999954223633,-2.8940000534057617 -2.9509999752044678,-2.8269999027252197 -2.940000057220459,-2.76200008392334 C-2.434999942779541,0.16599999368190765 -0.12700000405311584,2.4600000381469727 2.802999973297119,2.946000099182129 C2.8529999256134033,2.9539999961853027 2.9059998989105225,2.9519999027252197 2.9570000171661377,2.9590001106262207 C2.9570000171661377,2.9590001106262207 2.9570000171661377,0.9300000071525574 2.9570000171661377,0.9300000071525574z"></path>
                              </g>
                              <g id="l_d_3358" opacity="1" transform="matrix(1,0,0,1,36.03799819946289,36.04499816894531)">
                                <path id="l_d_3359" fill="rgb(34,34,34)" fill-opacity="1" d=" M-0.925000011920929,2.9549999237060547 C-0.5270000100135803,1 0.9980000257492065,-0.5400000214576721 2.9619998931884766,-0.9390000104904175 C2.9619998931884766,-0.9390000104904175 2.9619998931884766,-2.9549999237060547 2.9619998931884766,-2.9549999237060547 C2.869999885559082,-2.941999912261963 2.7730000019073486,-2.944999933242798 2.681999921798706,-2.927999973297119 C-0.23600000143051147,-2.388000011444092 -2.500999927520752,-0.0560000017285347 -2.9560000896453857,2.878000020980835 C-2.9600000381469727,2.9030001163482666 -2.9579999446868896,2.928999900817871 -2.9619998931884766,2.9549999237060547 C-2.9619998931884766,2.9549999237060547 -0.925000011920929,2.9549999237060547 -0.925000011920929,2.9549999237060547z"></path>
                              </g>
                            </g>
                            <g id="l_d_3360" opacity="1" transform="matrix(1,0,0,1,40,40)">
                              <path id="l_d_3361" stroke-linecap="butt" stroke-linejoin="miter" fill-opacity="0" stroke-miterlimit="4" stroke="rgb(34,34,34)" stroke-opacity="1" stroke-width="2" d=" M0,-2 C1.1050000190734863,-2 2,-1.1050000190734863 2,0 C2,1.1050000190734863 1.1050000190734863,2 0,2 C-1.1050000190734863,2 -2,1.1050000190734863 -2,0 C-2,-1.1050000190734863 -1.1050000190734863,-2 0,-2z"></path>
                            </g>
                          </g>
                          <g id="l_d_3339" style="display: none">
                            <rect id="l_d_3343" width="120" height="120" fill="#ffffff"></rect>
                          </g>
                        </g>
                      </svg>