
<svg width="512" height="512" viewBox="0 0 512 512" fill="none" xmlns="http://www.w3.org/2000/svg">
<rect width="512" height="512" rx="100" fill="white"/>
<path d="M65.8769 422.584C65.8797 423.864 65.2926 423.652 64.1155 421.948C63.0454 420.35 61.9721 417.312 60.8956 412.835C60.6802 411.875 60.518 410.862 60.409 409.796C60.2998 408.623 60.2439 407.449 60.2413 406.276C60.231 401.583 60.8059 396.195 61.966 390.112C63.1258 383.923 64.5518 377.52 66.244 370.903C68.0427 364.179 69.7885 357.668 71.4814 351.371C73.1743 345.074 74.602 339.471 75.7646 334.562C76.927 329.546 77.5054 325.758 77.4998 323.198C77.497 321.918 77.3885 321.065 77.1742 320.639C76.96 320.213 76.8525 319.84 76.8518 319.52C76.8495 318.453 77.7016 317.918 79.4083 317.914C81.2216 317.91 83.4631 318.598 86.1328 319.979C88.8023 321.253 91.0998 323.168 93.0254 325.724C94.951 328.28 95.7043 331.318 95.2853 334.839C95.286 335.159 95.2334 335.479 95.1274 335.8C95.1281 336.12 95.0756 336.493 94.9698 336.92C98.2842 340.433 101.28 344.586 103.957 349.38C106.634 354.175 109.419 359.235 112.31 364.562C115.308 369.782 118.733 375.002 122.585 380.22C122.585 380.433 123.174 381.392 124.351 383.096C125.634 384.693 127.239 386.716 129.164 389.165C131.089 391.508 133.121 393.957 135.26 396.512C137.506 399.067 139.484 401.41 141.196 403.539L141.192 401.939C141.402 400.232 141.822 397.138 142.452 392.656C143.189 388.175 144.031 382.946 144.977 376.971C146.031 370.889 147.137 364.646 148.297 358.244C149.456 351.841 150.616 345.812 151.777 340.156C152.938 334.393 154.047 329.644 155.106 325.909C155.106 325.909 155.639 325.801 156.705 325.585C157.771 325.369 158.838 325.26 159.905 325.258C161.078 325.256 162.038 325.413 162.786 325.732C163.64 326.05 164.068 326.742 164.07 327.809C164.071 328.342 164.019 328.769 163.913 329.089C163.384 330.904 162.59 333.999 161.533 338.375C160.476 342.75 159.261 347.926 157.887 353.903C156.513 359.879 155.034 366.122 153.448 372.632C151.969 379.142 150.489 385.492 149.01 391.682C147.53 397.872 146.155 403.368 144.886 408.171L145.847 408.969C147.664 410.458 148.894 411.789 149.536 412.961C150.178 414.026 150.5 414.826 150.501 415.359C150.503 416.106 149.97 416.48 148.904 416.482C147.517 416.485 145.596 415.956 143.14 414.895C142.505 417.136 141.922 418.898 141.392 420.179C140.861 421.46 140.649 422.1 140.756 422.1C140.65 422.207 140.436 422.261 140.116 422.262C139.37 422.263 138.995 421.411 138.991 419.704C138.989 418.851 139.093 417.837 139.304 416.663C139.515 415.49 139.672 414.209 139.776 412.822C134.008 409.102 128.611 404.74 123.587 399.738C118.669 394.628 113.857 389.092 109.151 383.129C105.835 378.87 103.001 375.356 100.648 372.588C98.4015 369.713 96.2626 367.157 94.231 364.922C92.3059 362.579 90.2204 360.077 87.9746 357.415C85.746 362.647 83.3047 368.146 80.6506 373.911C78.1032 379.677 75.6089 385.336 73.1677 390.888C70.8329 396.333 68.924 401.404 67.4409 406.1C65.9576 410.69 65.2193 414.532 65.2261 417.625C65.2273 418.159 65.2283 418.639 65.2293 419.065C65.3371 419.598 65.4448 420.078 65.5524 420.505C65.66 420.931 65.7141 421.304 65.7148 421.624C65.8224 422.051 65.8765 422.37 65.8769 422.584ZM188.511 421.356C184.244 421.365 180.242 420.574 176.506 418.982C172.769 417.497 169.724 415.104 167.37 411.802C165.444 409.033 164.105 406.369 163.352 403.811C162.6 401.146 162.221 398.64 162.216 396.293C162.211 394.053 162.473 392.026 163.003 390.212C163.532 388.29 164.168 386.742 164.913 385.567C167.144 381.722 169.484 378.517 171.932 375.952C174.486 373.386 177.254 371.087 180.237 369.054C184.178 366.485 189.028 365.195 194.788 365.182C196.921 365.177 199.163 366.026 201.514 367.727C203.864 369.429 207.281 371.181 211.765 372.985C214.754 374.152 217.531 375.532 220.094 377.127C222.764 378.614 224.901 380.156 226.504 381.753C228.214 383.242 229.071 384.68 229.074 386.067C229.077 387.56 227.853 388.79 225.402 389.755C221.884 390.936 217.727 392.012 212.929 392.982C208.131 393.846 203.332 394.55 198.533 395.094C193.841 395.637 189.682 395.913 186.055 395.921C183.282 395.927 181.148 395.772 179.654 395.455C179.019 397.803 178.705 400.257 178.71 402.817C178.715 404.951 179.04 407.083 179.684 409.215C180.329 411.347 181.4 413.318 182.897 415.128C183.966 416.299 185.142 417.15 186.423 417.68C187.81 418.104 189.197 418.314 190.584 418.311C192.931 418.306 195.223 417.928 197.462 417.176C199.806 416.318 201.831 415.46 203.536 414.603C205.241 413.639 206.306 412.997 206.732 412.676C208.862 411.391 210.46 410.428 211.526 409.786C212.698 409.143 213.817 408.821 214.883 408.818C216.803 408.814 217.764 409.239 217.766 410.092C217.767 410.625 217.236 411.426 216.172 412.495C215.107 413.458 213.243 414.582 210.579 415.868C207.169 417.582 203.546 418.923 199.708 419.891C195.976 420.86 192.244 421.348 188.511 421.356ZM189.724 390.633C193.137 390.626 197.137 390.457 201.723 390.127C206.308 389.69 211.267 388.986 216.598 388.014C219.583 387.368 221.075 386.458 221.072 385.285C221.07 384.325 220.374 383.313 218.985 382.249C217.703 381.079 216.047 380.016 214.018 379.06C212.096 378.104 210.175 377.308 208.253 376.673C206.438 375.93 205.051 375.56 204.091 375.562C199.504 375.572 195.56 376.54 192.257 378.468C189.061 380.395 186.293 382.907 183.954 386.006C183.209 386.967 182.412 388.356 181.563 390.171C183.377 390.487 186.097 390.641 189.724 390.633ZM246.761 419.469C243.774 419.475 240.68 419.269 237.479 418.849C234.385 418.536 231.77 417.901 229.635 416.946C227.606 415.884 226.59 414.446 226.586 412.633C226.583 411.673 226.955 410.925 227.701 410.39C228.553 409.748 229.512 409.426 230.579 409.424C231.112 409.423 232.019 409.527 233.299 409.738C234.58 409.949 235.487 410.107 236.02 410.212C239.221 410.525 243.221 410.676 248.021 410.666C252.181 410.657 256.288 410.488 260.34 410.159C264.393 409.83 267.752 409.343 270.417 408.697C273.189 408.051 274.574 407.248 274.572 406.288C274.57 405.434 273.715 404.583 272.006 403.733C270.297 402.777 268.696 401.981 267.201 401.344C264.318 399.964 261.115 398.584 257.592 397.205C254.069 395.826 250.813 394.606 247.824 393.546C244.941 392.379 243.02 391.583 242.059 391.159C238.749 389.673 235.865 388.079 233.408 386.378C230.951 384.676 229.72 382.812 229.716 380.786C229.713 379.186 230.828 377.103 233.062 374.538C235.723 371.653 239.024 369.299 242.967 367.477C247.016 365.548 251.333 364.098 255.917 363.128C260.609 362.158 265.194 361.668 269.674 361.658C273.088 361.651 276.288 361.911 279.276 362.437C282.371 362.964 285.039 363.758 287.281 364.82C288.776 365.563 290.112 366.52 291.288 367.691C292.57 368.755 293.212 369.714 293.214 370.567C293.215 371.207 292.896 371.688 292.257 372.009C291.724 372.33 291.031 372.492 290.178 372.494C289.751 372.495 289.325 372.495 288.898 372.496C288.578 372.39 288.258 372.284 287.937 372.179C285.695 371.33 283.401 370.642 281.053 370.114C278.705 369.585 276.304 369.324 273.851 369.329C270.544 369.336 266.973 370.091 263.136 371.593C259.406 372.988 256.21 374.808 253.548 377.054C250.993 379.299 249.718 381.595 249.723 383.942C249.726 385.115 250.208 386.394 251.171 387.779C252.134 389.057 253.79 390.44 256.14 391.928C260.092 394.266 264.097 396.231 268.153 397.822C272.21 399.306 275.573 400.739 278.243 402.12C282.301 404.351 284.333 406.853 284.339 409.626C284.344 411.653 283.067 413.309 280.51 414.595C277.953 415.88 274.702 416.848 270.756 417.496C266.811 418.251 262.652 418.741 258.279 418.963C254.014 419.293 250.174 419.461 246.761 419.469ZM315.039 421.559C314.186 421.561 313.118 421.19 311.837 420.446C310.555 419.809 309.059 418.319 307.347 415.976C305.956 414.059 304.883 411.395 304.129 407.983C303.482 404.571 303.154 401.159 303.147 397.745C303.137 393.265 303.396 389.531 303.923 386.544C304.449 383.556 304.818 381.635 305.03 380.781C303.427 379.291 302.091 378.228 301.023 377.59C299.955 376.952 299.42 376.207 299.418 375.353C299.415 373.86 300.426 372.685 302.45 371.827C304.582 370.862 306.927 370.27 309.487 370.051C310.442 367.809 311.29 365.407 312.031 362.846C312.772 360.178 313.513 357.669 314.254 355.321C314.996 352.866 315.791 350.944 316.642 349.556C318.13 347.099 320.419 345.441 323.511 344.581C326.709 343.72 329.748 343.287 332.628 343.281C335.508 343.274 337.802 343.589 339.51 344.226C341.325 344.755 341.753 345.394 340.794 346.143C339.09 347.32 337.228 349.351 335.208 352.235C333.187 355.013 331.22 358.057 329.308 361.368C327.395 364.679 325.641 367.723 324.048 370.5L345.167 370.453C349.007 370.445 350.928 370.761 350.93 371.401C350.932 372.468 348.587 373.113 343.894 373.336C337.814 373.456 333.334 373.626 330.455 373.846C327.682 374.065 325.709 374.283 324.536 374.499C323.044 374.822 321.925 375.304 321.179 375.946C320.434 376.588 319.796 377.656 319.266 379.15C317.463 383.741 315.98 388.544 314.818 393.56C313.762 398.469 313.238 402.95 313.247 407.003C313.254 410.097 313.58 412.763 314.225 415.001C314.976 417.133 316.046 418.571 317.434 419.314C317.754 419.42 317.915 419.633 317.916 419.953C317.916 420.273 317.65 420.594 317.118 420.915C316.585 421.343 315.892 421.558 315.039 421.559ZM349.523 419.404C348.243 419.407 347.121 418.556 346.158 416.851C345.3 415.04 344.603 413.015 344.064 410.776C343.526 408.43 343.255 406.458 343.251 404.858C343.244 401.338 343.715 397.23 344.664 392.535C345.721 387.839 347.097 382.929 348.792 377.806C350.488 372.575 352.343 367.451 354.359 362.433C356.374 357.416 358.444 352.771 360.568 348.5C362.692 344.122 364.604 340.544 366.305 337.767C367.793 335.311 369.923 333.653 372.694 332.793C375.572 331.827 378.291 331.341 380.851 331.335C383.411 331.33 385.438 331.645 386.933 332.282C388.428 332.919 388.856 333.665 388.218 334.519C384.92 338.793 381.465 343.814 377.851 349.582C374.237 355.35 370.73 361.438 367.331 367.845C364.038 374.252 361.065 380.605 358.412 386.905C355.866 393.203 353.905 399.074 352.531 404.517C351.156 409.96 350.686 414.495 351.12 418.121C351.122 418.974 350.59 419.402 349.523 419.404ZM397.201 445.7C396.454 445.702 396.08 445.329 396.078 444.582C396.077 443.942 396.341 442.982 396.872 441.701C397.403 440.526 398.04 439.138 398.783 437.536C401.226 432.731 403.616 428.246 405.954 424.081C408.398 419.915 410.842 415.91 413.287 412.065C408.374 409.195 403.994 405.898 400.146 402.173C396.404 398.448 393.196 394.829 390.522 391.314C387.954 387.8 385.974 384.818 384.582 382.367C383.297 379.917 382.654 378.585 382.654 378.372C382.652 377.838 383.132 377.411 384.091 377.088C385.157 376.766 386.33 376.55 387.609 376.441C388.996 376.331 390.169 376.275 391.129 376.273C392.196 376.271 392.729 376.27 392.729 376.27C394.56 384.372 397.668 391.192 402.054 396.729C406.546 402.159 411.034 406.15 415.52 408.7C419.985 401.65 423.702 394.495 426.673 387.235C429.75 379.869 432.772 371.542 435.739 362.256C435.738 361.936 436.164 361.775 437.017 361.773C438.084 361.77 439.578 362.034 441.499 362.563C443.527 363.092 445.502 363.834 447.424 364.79C449.453 365.639 451.055 366.649 452.231 367.82C453.513 368.883 453.995 369.949 453.678 371.016C451.77 376.567 449.063 382.546 445.557 388.954C442.051 395.255 438.118 401.504 433.758 407.7C429.504 413.789 425.197 419.452 420.835 424.688C416.473 429.924 412.483 434.307 408.864 437.834C405.351 441.362 402.583 443.608 400.558 444.573C399.067 445.323 397.947 445.698 397.201 445.7Z" fill="url(#paint0_linear_9_25)"/>
<path d="M430.324 294.939C433.51 296.939 437.196 298 440.958 298H458.949C477.395 298 486.007 275.155 472.152 262.978L269.203 84.6045C261.652 77.9677 250.348 77.9677 242.797 84.6045L39.8477 262.978C25.9929 275.155 34.6055 298 53.051 298H71.0424C74.8044 298 78.4901 296.939 81.6763 294.939L245.366 192.176C251.868 188.094 260.132 188.094 266.634 192.176L430.324 294.939ZM121.176 124.226C125.513 120.428 128 114.944 128 109.179V93C128 81.9543 119.046 73 108 73H71.2C60.1543 73 51.2 81.9543 51.2 93V141.403C51.2 158.59 71.4455 167.772 84.3756 156.45L121.176 124.226Z" fill="url(#paint1_linear_9_25)"/>
<defs>
<linearGradient id="paint0_linear_9_25" x1="454.5" y1="781.5" x2="-70.5852" y2="735.745" gradientUnits="userSpaceOnUse">
<stop/>
<stop offset="1" stop-opacity="0.67"/>
</linearGradient>
<linearGradient id="paint1_linear_9_25" x1="262.5" y1="62.5" x2="463.819" y2="303.539" gradientUnits="userSpaceOnUse">
<stop stop-color="#3C3ABC"/>
<stop offset="0.998095" stop-color="#2A94D0"/>
</linearGradient>
</defs>
</svg>
