<svg width="768" height="768" viewBox="0 0 768 768" fill="none" xmlns="http://www.w3.org/2000/svg">
<rect width="768" height="768" rx="384" fill="url(#paint0_linear_10_2597)"/>
<path d="M632 334.5L453 155.5C415 117.5 354 117.5 316 155.5L136 334.5C128 342.5 128 355.5 136 364.5C144 372.5 287.5 372.5 296.5 364.5L179 351.5V578.5C179 617.5 202 641.5 250 641.5C296 641.5 335 636.5 335 599.5C335 562.5 335 526.5 335 526.5V447.5C335 434.5 342 394.5 385 394.5C428 394.5 433 434.5 433 447.5V578.5C433 594.5 439 608.5 450 619.5C464 633.5 486 641.5 512 641.5C560 641.5 589 617.5 589 578.5V351.5L528.5 369C532.5 373 611 370.5 617 370.5C622 370.5 628 368.5 632 364.5C640 356.5 640 343.5 632 334.5ZM547 578.5C547 592.5 499 447.5 476 447.5C462 447.5 496.5 605.5 490.5 599.5C506 591.5 499.5 569.5 499.5 564.5L476 447.5C476 400.5 439.5 364.5 384.5 364.5C329.5 364.5 294 400.5 294 447.5V578.5C294 599.5 296 447.5 294 447.5C259 447.5 222 584.5 222 578.5L294 447.5L384.5 364.5C392 361.5 394.5 354.5 384.5 364.5C399.5 364.5 444.598 384.5 454.598 394.5L476 447.5L547 578.5Z" fill="white"/>
<rect x="181" y="372" width="406" height="270" rx="66" fill="white"/>
<path d="M462.078 589.059V435.529C462.078 400.445 428.534 372 387.161 372H380.918C339.544 372 306 400.445 306 435.529V642H462.078" fill="url(#paint1_linear_10_2597)"/>
<defs>
<linearGradient id="paint0_linear_10_2597" x1="182.5" y1="59" x2="639" y2="658" gradientUnits="userSpaceOnUse">
<stop stop-color="#67D7FE"/>
<stop offset="1" stop-color="#6F6EF9"/>
</linearGradient>
<linearGradient id="paint1_linear_10_2597" x1="318.5" y1="344" x2="507" y2="658" gradientUnits="userSpaceOnUse">
<stop stop-color="#67D7FE"/>
<stop offset="1" stop-color="#6F6EF9"/>
</linearGradient>
</defs>
</svg>
