<svg width="821" height="150" viewBox="0 0 821 150" fill="none" xmlns="http://www.w3.org/2000/svg">
<path d="M236.039 53.9646V78.2891C236.039 89.4058 229.166 96.2784 218.109 96.2784C206.933 96.2784 200 89.4058 200 78.2891V53.9646H209.384V78.2891C209.384 84.1461 212.91 88.091 218.169 88.091C223.368 88.091 226.716 84.2661 226.716 78.3491V54.0246L236.039 53.9646Z" fill="black"/>
<path d="M293.675 95.8002H283.097L275.686 82.1141H269.65V95.8002H260.267V53.9646H277.36C287.4 53.9646 293.138 58.4473 293.138 67.6511C293.138 74.7033 290.149 79.126 284.711 81.0385L293.675 95.8002ZM284.352 68.0098C284.352 63.4075 281.663 61.6745 276.821 61.6745H269.59V74.4641H276.821C281.603 74.4641 284.352 72.6712 284.352 68.0098Z" fill="black"/>
<path d="M343.084 73.9857C347.926 75.0022 351.033 79.0663 351.033 84.3851C351.033 87.2536 350.077 89.7047 348.284 91.5568C347.508 77.6316 334.777 77.9907 334.777 77.9907H326.052V88.33H334.777C337.826 88.33 339.977 87.1944 340.873 85.2815C344.638 90.1821 341.591 95.86 336.033 95.86H316.728V54.0244H335.315C344.16 54.0244 349.659 57.9689 349.659 64.3038C349.659 68.607 347.148 72.0733 343.084 73.2688L341.411 73.7475L343.084 74.1057L343.084 73.9857ZM340.037 66.0971C340.037 63.1686 338.005 61.3157 334.717 61.3157H325.992V70.9977H334.717C337.945 70.9977 340.037 69.0852 340.037 66.0971Z" fill="black"/>
<path d="M398.422 54.0244H388.501L371.527 95.86H381.09L386.708 80.6201L393.162 63.9386L405.056 95.86H415.037L398.422 54.0244Z" fill="black"/>
<path d="M444.607 54.0244L472.517 95.86H462.895L444.966 68.607V95.86H436.24V54.0244H444.607ZM472.517 54.0244V86.3571C466.66 82.7713 464.33 75.8982 463.852 74.2249V54.0244H472.517Z" fill="black"/>
<path d="M549.908 53.9646V78.2891C549.908 89.4058 543.036 96.2784 531.979 96.2784C520.803 96.2784 513.87 89.4058 513.87 78.2891V53.9646H523.253V78.2891C523.253 84.1461 526.779 88.091 532.039 88.091C537.238 88.091 540.585 84.2661 540.585 78.3491V54.0246L549.908 53.9646Z" fill="black"/>
<path d="M604.318 53.9646V61.8536H570.79V53.9646H604.318ZM582.802 66.5751C587.166 63.1088 592.126 66.5751 592.126 66.5751V95.8002H582.743V66.5751H582.802Z" fill="black"/>
<path d="M667.975 74.8822C667.975 87.1345 658.233 96.3382 645.323 96.3382C632.415 96.3382 622.673 87.1345 622.673 74.8822C622.673 62.81 632.415 53.6658 645.323 53.6658C658.233 53.6658 667.975 62.81 667.975 74.8822ZM645.503 88.1509C652.376 88.1509 658.651 82.3531 658.651 74.9422C658.651 67.591 652.376 61.8535 645.503 61.8535C638.511 61.8535 632.115 67.591 632.115 74.9422C632.115 82.2339 638.571 88.1509 645.443 88.1509H645.503Z" fill="black"/>
<path d="M723.954 67.7105C723.954 77.4525 718.217 82.1739 708.176 82.1739H700.467V95.86H691.083V54.0244H708.176C718.217 54.0244 723.954 58.5067 723.954 67.7105ZM715.169 68.0692C715.169 63.4673 712.48 61.7339 707.639 61.7339H700.407V74.524H707.639C712.42 74.524 715.169 72.731 715.169 68.0692Z" fill="black"/>
<path d="M746.551 95.86V54.0244H755.934V95.86H746.551Z" fill="black"/>
<path d="M804.201 54.0244H794.28L777.307 95.86H786.869L792.487 80.6201L798.942 63.9386L810.835 95.86H820.816L804.201 54.0244Z" fill="black"/>
<rect width="150" height="150" rx="75" fill="url(#paint0_linear_10_2619)"/>
<path d="M123.438 65.332L88.4766 30.3711C81.0547 22.9492 69.1406 22.9492 61.7188 30.3711L26.5625 65.332C25 66.8945 25 69.4336 26.5625 71.1914C28.125 72.7539 56.1523 72.7539 57.9102 71.1914L34.9609 68.6523V112.988C34.9609 120.605 39.4531 125.293 48.8281 125.293C57.8125 125.293 65.4297 124.316 65.4297 117.09C65.4297 109.863 65.4297 102.832 65.4297 102.832V87.4023C65.4297 84.8633 66.7969 77.0508 75.1953 77.0508C83.5938 77.0508 84.5703 84.8633 84.5703 87.4023V112.988C84.5703 116.113 85.7422 118.848 87.8906 120.996C90.625 123.73 94.9219 125.293 100 125.293C109.375 125.293 115.039 120.605 115.039 112.988V68.6523L103.223 72.0703C104.004 72.8516 119.336 72.3633 120.508 72.3633C121.484 72.3633 122.656 71.9727 123.438 71.1914C125 69.6289 125 67.0898 123.438 65.332ZM106.836 112.988C106.836 115.723 97.4609 87.4023 92.9688 87.4023C90.2344 87.4023 96.9727 118.262 95.8008 117.09C98.8281 115.527 97.5586 111.23 97.5586 110.254L92.9688 87.4023C92.9688 78.2227 85.8398 71.1914 75.0977 71.1914C64.3555 71.1914 57.4219 78.2227 57.4219 87.4023V112.988C57.4219 117.09 57.8125 87.4023 57.4219 87.4023C50.5859 87.4023 43.3594 114.16 43.3594 112.988L57.4219 87.4023L75.0977 71.1914C76.5625 70.6055 77.0508 69.2383 75.0977 71.1914C78.0273 71.1914 86.8355 75.0977 88.7886 77.0508L92.9688 87.4023L106.836 112.988Z" fill="white"/>
<rect x="35.3516" y="72.6562" width="79.2969" height="52.7344" rx="11" fill="white"/>
<path d="M90.2498 115.051V85.0643C90.2498 78.212 83.6981 72.6562 75.6174 72.6562H74.398C66.3173 72.6562 59.7657 78.212 59.7657 85.0643V125.391H90.2498" fill="url(#paint1_linear_10_2619)"/>
<defs>
<linearGradient id="paint0_linear_10_2619" x1="35.6445" y1="11.5234" x2="124.805" y2="128.516" gradientUnits="userSpaceOnUse">
<stop stop-color="#67D7FE"/>
<stop offset="1" stop-color="#6F6EF9"/>
</linearGradient>
<linearGradient id="paint1_linear_10_2619" x1="62.2071" y1="67.1875" x2="99.0235" y2="128.516" gradientUnits="userSpaceOnUse">
<stop stop-color="#67D7FE"/>
<stop offset="1" stop-color="#6F6EF9"/>
</linearGradient>
</defs>
</svg>
