<svg width="512" height="512" viewBox="0 0 512 512" fill="none" xmlns="http://www.w3.org/2000/svg">
<path d="M430.324 364.939C433.51 366.939 437.196 368 440.958 368H458.949C477.395 368 486.007 345.155 472.152 332.978L269.203 154.604C261.652 147.968 250.348 147.968 242.797 154.604L39.8477 332.978C25.9929 345.155 34.6055 368 53.051 368H71.0424C74.8044 368 78.4901 366.939 81.6763 364.939L245.366 262.176C251.868 258.094 260.132 258.094 266.634 262.176L430.324 364.939ZM121.176 194.226C125.513 190.428 128 184.944 128 179.179V163C128 151.954 119.046 143 108 143H71.2C60.1543 143 51.2 151.954 51.2 163V211.403C51.2 228.59 71.4455 237.772 84.3756 226.45L121.176 194.226Z" fill="url(#paint0_linear_9_31)"/>
<defs>
<linearGradient id="paint0_linear_9_31" x1="262.5" y1="132.5" x2="463.819" y2="373.539" gradientUnits="userSpaceOnUse">
<stop stop-color="#3C3ABC"/>
<stop offset="0.998095" stop-color="#2A94D0"/>
</linearGradient>
</defs>
</svg>
